<svg xmlns="http://www.w3.org/2000/svg" width="867" height="384" fill="none" xmlns:v="https://vecta.io/nano"><style><![CDATA[.B{stroke:#004c99}.C{fill:#036}.D{fill:#fff}.E{stroke-miterlimit:10}.F{fill:#ff8000}.G{fill:#004c99}]]></style><g stroke-width="2"><path opacity=".25" d="M866 4H3V383H866V4Z" fill="#000" stroke="#000"/><path d="M864 1H1V380H864V1Z" fill="#e6e6e6" stroke="#0063c7"/></g><path d="M0 0v152.6c288.333 75.8 576.667 75.8 865 0V0H0z" fill="url(#A)"/><path d="M357.216 17.414h2.109l3.104 8.874 3.105-8.873h2.108L363.276 29.5h-1.693l-4.367-12.086zm-1.137 0h2.1l.382 8.649V29.5h-2.482V17.414zm10.6 0h2.109V29.5h-2.491v-3.436l.382-8.649zm8.002 12.086h-2.631l.016-1.942h2.615c.653 0 1.204-.147 1.652-.44.448-.299.786-.733 1.013-1.303s.348-1.259.348-2.067v-.589c0-.62-.066-1.165-.199-1.635-.127-.47-.318-.866-.573-1.187a2.39 2.39 0 0 0-.938-.722c-.37-.166-.796-.249-1.278-.249H372v-1.951h2.706c.808 0 1.547.138 2.216.415.675.271 1.259.661 1.752 1.17s.871 1.118 1.137 1.826c.271.703.407 1.486.407 2.349v.573c0 .858-.136 1.641-.407 2.349-.266.708-.645 1.317-1.137 1.826-.487.504-1.071.894-1.752 1.17-.675.271-1.422.407-2.241.407zm-1.22-12.086V29.5h-2.49V17.414h2.49zm16.336 10.144V29.5h-6.085v-1.942h6.085zm-5.279-10.143V29.5h-2.491V17.414h2.491zm18.959 10.218V29.5h-8.268v-1.594l3.91-4.192c.393-.437.702-.822.929-1.154.227-.338.39-.639.49-.905a2.14 2.14 0 0 0 .158-.772c0-.365-.061-.678-.183-.938a1.36 1.36 0 0 0-.539-.614c-.233-.144-.521-.216-.864-.216-.365 0-.68.089-.946.266-.26.177-.459.423-.598.739a2.75 2.75 0 0 0-.199 1.071h-2.399a3.9 3.9 0 0 1 .515-1.976 3.77 3.77 0 0 1 1.453-1.436c.625-.36 1.366-.54 2.224-.54.847 0 1.561.138 2.142.415.586.271 1.029.664 1.328 1.179.304.509.456 1.118.456 1.826 0 .398-.063.788-.19 1.17a5.32 5.32 0 0 1-.548 1.129 9.15 9.15 0 0 1-.847 1.129l-1.104 1.187-2.1 2.357h5.18zm1.71.714a1.19 1.19 0 0 1 .365-.888c.249-.238.578-.357.988-.357s.736.119.979.357a1.18 1.18 0 0 1 .374.888 1.18 1.18 0 0 1-.374.888c-.243.238-.57.357-.979.357s-.739-.119-.988-.357a1.19 1.19 0 0 1-.365-.888zm12.849-5.952v2.092c0 .908-.097 1.691-.29 2.349-.194.653-.474 1.19-.839 1.61a3.3 3.3 0 0 1-1.286.921c-.498.199-1.052.299-1.661.299-.487 0-.94-.061-1.361-.183-.42-.127-.8-.324-1.137-.589s-.62-.6-.863-1.004c-.238-.41-.421-.896-.548-1.461s-.191-1.212-.191-1.942v-2.092c0-.908.097-1.685.29-2.332.2-.653.479-1.187.839-1.602.365-.415.797-.719 1.295-.913.498-.199 1.051-.299 1.66-.299.487 0 .938.064 1.353.191.42.122.8.313 1.137.573s.625.595.863 1.004c.238.404.421.888.548 1.453a8.74 8.74 0 0 1 .191 1.926zm-2.399 2.407v-2.731c0-.437-.025-.819-.075-1.145-.044-.326-.113-.603-.207-.83a1.74 1.74 0 0 0-.349-.564c-.138-.144-.296-.249-.473-.316s-.373-.1-.589-.1c-.271 0-.512.053-.722.158-.205.105-.379.274-.523.506-.144.227-.255.531-.332.913-.072.376-.108.836-.108 1.378v2.731c0 .437.022.822.066 1.154.05.332.122.617.216.855.1.232.216.423.349.573.138.144.296.249.473.315s.382.1.597.1c.266 0 .501-.053.706-.158a1.39 1.39 0 0 0 .531-.515c.15-.238.26-.548.332-.93s.108-.847.108-1.395zm8.558-1.345v-.315c0-.553.177-1.004.532-1.353.354-.354.83-.531 1.427-.531.62 0 1.104.177 1.453.531.354.349.531.8.531 1.353v.315c0 .548-.174.996-.523 1.345s-.83.523-1.444.523c-.603 0-1.085-.174-1.444-.523s-.532-.797-.532-1.345zm15 1.735h-3.08V23.25h3.08c.476 0 .863-.078 1.162-.232.299-.16.517-.382.656-.664s.207-.6.207-.955a2.44 2.44 0 0 0-.207-1.004 1.68 1.68 0 0 0-.656-.747c-.299-.188-.686-.282-1.162-.282h-2.216V29.5h-2.491V17.414h4.707c.946 0 1.757.171 2.432.515.681.338 1.201.805 1.561 1.403s.539 1.281.539 2.05c0 .78-.18 1.455-.539 2.025s-.88 1.01-1.561 1.32c-.675.31-1.486.465-2.432.465zm6.25-7.778h4.508c.924 0 1.718.138 2.382.415.67.277 1.184.686 1.544 1.229s.539 1.209.539 2c0 .648-.11 1.204-.332 1.669a3.12 3.12 0 0 1-.921 1.154c-.393.304-.855.548-1.386.73l-.789.415h-3.918l-.016-1.942h2.913c.437 0 .8-.078 1.088-.232s.503-.371.647-.647c.15-.277.224-.598.224-.963 0-.387-.072-.722-.216-1.004a1.45 1.45 0 0 0-.655-.647c-.294-.149-.662-.224-1.104-.224h-2.017V29.5h-2.491V17.414zm6.757 12.086l-2.756-5.387 2.632-.017 2.789 5.288v.116h-2.665zm12.244-1.942V29.5h-6.433v-1.942h6.433zm-5.62-10.143V29.5h-2.49V17.414h2.49zm4.781 4.922v1.893h-5.594v-1.893h5.594zm.831-4.922v1.951h-6.425v-1.951h6.425zm5.818 9.563l2.848-9.562h2.772L471.667 29.5h-1.826l.415-2.523zm-2.623-9.562l2.839 9.563.432 2.523h-1.843l-4.184-12.086h2.756zm12.02 0V29.5h-2.482V17.414h2.482zm10.442 10.144V29.5h-6.433v-1.942h6.433zm-5.619-10.143V29.5h-2.491V17.414h2.491zm4.781 4.922v1.893h-5.595v-1.893h5.595zm.83-4.922v1.951h-6.425v-1.951h6.425zm4.374 10.168l2.408-10.168h1.344l.308 1.693-2.565 10.393h-1.445l-.05-1.918zm-1.236-10.168l1.992 10.168-.166 1.918h-1.611l-2.681-12.086h2.466zm7.412 10.127l1.967-10.127h2.466L502.397 29.5h-1.61l-.15-1.959zm-1.668-10.127l2.424 10.21-.067 1.876h-1.444L497.3 19.099l.332-1.685h1.337z" fill="#4d4d4d"/><path d="M783 46H360V357H783V46Z" class="B D"/><path d="M728.903 58.04c0-.101-.029-.192-.088-.273s-.167-.156-.327-.225-.382-.137-.678-.195a5.35 5.35 0 0 1-.748-.22 2.6 2.6 0 0 1-.595-.327 1.43 1.43 0 0 1-.391-.449c-.094-.176-.141-.376-.141-.601s.047-.43.141-.625.236-.368.415-.518.404-.272.664-.356.56-.132.889-.132c.459 0 .853.073 1.182.22s.586.348.761.605a1.47 1.47 0 0 1 .269.869h-1.406a.76.76 0 0 0-.088-.366c-.056-.111-.144-.197-.264-.259a.94.94 0 0 0-.459-.098.92.92 0 0 0-.405.083c-.114.052-.202.124-.264.215a.52.52 0 0 0-.088.293.49.49 0 0 0 .049.22c.036.062.093.119.171.171a1.46 1.46 0 0 0 .303.147c.127.042.283.081.468.117a5.41 5.41 0 0 1 1.021.308c.299.124.537.293.713.508s.264.49.264.835a1.35 1.35 0 0 1-.157.645c-.104.195-.254.366-.449.513s-.43.255-.703.337-.575.117-.913.117c-.492 0-.908-.088-1.25-.264s-.596-.399-.772-.669-.258-.553-.258-.84h1.333c.006.192.055.347.146.464a.8.8 0 0 0 .356.254 1.41 1.41 0 0 0 .474.078c.182 0 .334-.024.454-.073s.212-.12.274-.205.097-.189.097-.303zm4.712 1.558c-.41 0-.778-.065-1.103-.195s-.602-.317-.83-.552-.397-.506-.518-.815-.181-.645-.181-.996v-.195c0-.4.057-.767.171-1.099a2.58 2.58 0 0 1 .489-.864c.214-.244.475-.431.781-.562s.651-.2 1.035-.2c.374 0 .706.062.996.186s.532.3.728.527.348.501.449.82.151.667.151 1.055v.586h-4.199v-.937h2.817v-.108c0-.195-.035-.369-.107-.522s-.173-.28-.313-.371-.319-.137-.537-.137a.9.9 0 0 0-.478.122c-.134.081-.243.195-.327.342s-.144.319-.186.518a3.3 3.3 0 0 0-.058.645v.195a1.89 1.89 0 0 0 .087.586c.062.179.149.334.259.464s.251.231.41.303a1.36 1.36 0 0 0 .552.107 1.71 1.71 0 0 0 .708-.147 1.53 1.53 0 0 0 .571-.454l.684.742c-.111.16-.262.313-.454.459a2.43 2.43 0 0 1-.684.361c-.267.091-.571.137-.913.137zm4.375-4.229V59.5h-1.406v-5.283h1.323l.083 1.152zm1.592-1.187l-.024 1.304-.249-.024-.259-.015c-.199 0-.371.026-.518.078s-.263.122-.361.22-.166.216-.215.356-.072.299-.078.479l-.283-.088a4.08 4.08 0 0 1 .102-.942 2.63 2.63 0 0 1 .298-.757c.134-.215.296-.381.488-.498a1.24 1.24 0 0 1 .66-.176 1.52 1.52 0 0 1 .239.02.88.88 0 0 1 .2.044zm2.549 4.292l1.172-4.258h1.469L742.99 59.5h-.888l.029-1.025zm-.806-4.258l1.177 4.263.024 1.02h-.893l-1.782-5.283h1.474zm6.441 5.381a2.95 2.95 0 0 1-1.104-.195c-.325-.133-.602-.317-.83-.552s-.397-.506-.518-.815-.18-.645-.18-.996v-.195c0-.4.057-.767.171-1.099s.276-.62.488-.864.475-.431.781-.562.651-.2 1.035-.2c.375 0 .707.062.996.186a1.95 1.95 0 0 1 .728.527 2.27 2.27 0 0 1 .449.82 3.45 3.45 0 0 1 .152 1.055v.586h-4.2v-.937h2.818v-.108c0-.195-.036-.369-.108-.522s-.172-.28-.312-.371-.319-.137-.537-.137c-.186 0-.345.041-.479.122a.95.95 0 0 0-.327.342c-.081.146-.143.319-.185.518a3.22 3.22 0 0 0-.059.645v.195c0 .212.029.407.088.586s.148.334.259.464.25.231.41.303.346.107.552.107c.253 0 .489-.049.708-.147s.411-.252.571-.454l.683.742c-.11.16-.262.313-.454.459a2.41 2.41 0 0 1-.683.361 2.82 2.82 0 0 1-.913.137zm4.375-4.229V59.5h-1.407v-5.283h1.324l.083 1.152zm1.591-1.187l-.024 1.304-.249-.024-.259-.015c-.198 0-.371.026-.517.078s-.264.122-.362.22-.166.216-.215.356-.071.299-.078.479l-.283-.088c0-.342.034-.656.103-.942s.167-.542.298-.757.296-.381.488-.498a1.24 1.24 0 0 1 .659-.176 1.51 1.51 0 0 1 .239.02c.082.01.148.024.2.044zm3.438 1.714V57h-2.759v-1.103h2.759zm4.028 2.143c0-.101-.029-.192-.088-.273s-.167-.156-.327-.225-.382-.137-.679-.195a5.38 5.38 0 0 1-.747-.22 2.6 2.6 0 0 1-.595-.327 1.42 1.42 0 0 1-.391-.449c-.094-.176-.142-.376-.142-.601s.048-.43.142-.625.236-.368.415-.518.404-.272.664-.356.56-.132.889-.132c.459 0 .853.073 1.182.22s.585.348.761.605a1.47 1.47 0 0 1 .269.869h-1.406a.76.76 0 0 0-.088-.366c-.056-.111-.144-.197-.264-.259a.94.94 0 0 0-.459-.098.92.92 0 0 0-.405.083c-.114.052-.202.124-.264.215s-.088.185-.088.293a.48.48 0 0 0 .049.22c.036.062.093.119.171.171a1.46 1.46 0 0 0 .303.147c.127.042.283.081.468.117a5.41 5.41 0 0 1 1.021.308c.299.124.537.293.713.508s.263.49.263.835a1.35 1.35 0 0 1-.156.645c-.104.195-.254.366-.449.513s-.43.255-.703.337-.575.117-.913.117c-.492 0-.908-.088-1.25-.264s-.596-.399-.772-.669a1.56 1.56 0 0 1-.259-.84h1.333c.007.192.056.347.147.464a.8.8 0 0 0 .356.254 1.41 1.41 0 0 0 .474.078c.182 0 .334-.024.454-.073s.212-.12.274-.205.097-.189.097-.303zm3.765-3.823V59.5h-1.411v-5.283h1.411zm-1.499-1.377a.66.66 0 0 1 .215-.508c.143-.133.335-.2.576-.2s.428.067.571.2.22.303.22.508-.073.374-.22.508-.333.2-.571.2-.433-.067-.576-.2a.66.66 0 0 1-.215-.508zm5.781 5.508V52h1.416v7.5h-1.274l-.142-1.152zm-3.34-1.426v-.103c0-.404.046-.77.137-1.099s.225-.617.4-.855a1.83 1.83 0 0 1 .65-.552c.257-.13.55-.195.879-.195.309 0 .579.065.81.195s.433.316.596.557.299.519.4.845.174.675.22 1.06V57c-.046.368-.119.71-.22 1.025s-.234.592-.4.83-.361.417-.596.547a1.66 1.66 0 0 1-.82.195 1.88 1.88 0 0 1-.879-.2c-.254-.133-.469-.321-.644-.562s-.305-.524-.396-.85-.137-.68-.137-1.064zm1.407-.103v.103c0 .218.016.422.048.61a1.77 1.77 0 0 0 .171.503c.082.143.186.255.313.337s.288.117.473.117c.241 0 .44-.054.596-.161s.275-.262.357-.454.133-.413.146-.664v-.64c-.01-.205-.039-.389-.088-.552s-.114-.308-.205-.425a.91.91 0 0 0-.332-.273c-.13-.065-.285-.098-.464-.098s-.338.042-.469.127a.93.93 0 0 0-.317.337c-.078.143-.137.313-.176.508a3.4 3.4 0 0 0-.053.625zm6.879 2.778c-.41 0-.778-.065-1.103-.195s-.602-.317-.83-.552-.397-.506-.518-.815-.18-.645-.18-.996v-.195c0-.4.057-.767.17-1.099a2.58 2.58 0 0 1 .489-.864c.215-.244.475-.431.781-.562s.651-.2 1.035-.2c.375 0 .707.062.996.186s.532.3.728.527.348.501.449.82.151.667.151 1.055v.586h-4.199v-.937h2.818v-.108c0-.195-.036-.369-.108-.522s-.172-.28-.312-.371-.319-.137-.537-.137c-.186 0-.346.041-.479.122s-.243.195-.327.342-.143.319-.186.518a3.3 3.3 0 0 0-.058.645v.195c0 .212.029.407.088.586s.148.334.258.464a1.18 1.18 0 0 0 .411.303 1.35 1.35 0 0 0 .551.107 1.71 1.71 0 0 0 .708-.147c.222-.101.412-.252.572-.454l.683.742c-.11.16-.262.313-.454.459a2.43 2.43 0 0 1-.684.361c-.266.091-.571.137-.913.137z" class="C"/><path d="M767 72H375V342H767V72Z" class="B D"/><path d="M739.229 84.499a1.03 1.03 0 0 0 .459-.098c.134-.068.238-.163.313-.283s.119-.269.122-.435h1.323c-.003.371-.102.701-.298.991s-.457.513-.786.679-.696.244-1.103.244-.768-.068-1.074-.205-.555-.326-.757-.566a2.48 2.48 0 0 1-.454-.85 3.51 3.51 0 0 1-.152-1.045v-.142c0-.374.051-.723.152-1.045s.252-.609.454-.85.454-.435.757-.571.657-.205 1.064-.205c.433 0 .812.083 1.138.249s.586.404.771.713.285.669.288 1.089h-1.323c-.003-.176-.041-.335-.112-.478a.82.82 0 0 0-.303-.342c-.13-.088-.291-.132-.483-.132-.205 0-.373.044-.503.132a.84.84 0 0 0-.303.352 1.73 1.73 0 0 0-.151.503c-.026.186-.039.381-.039.586v.142a4.33 4.33 0 0 0 .039.591 1.64 1.64 0 0 0 .146.503.88.88 0 0 0 .308.347c.13.085.299.127.507.127zM743.746 78v7.5h-1.411V78h1.411zm.938 4.912v-.102c0-.387.055-.744.166-1.069s.271-.614.483-.855.472-.428.781-.561.664-.205 1.065-.205.757.068 1.069.205a2.15 2.15 0 0 1 .786.561 2.42 2.42 0 0 1 .488.855c.111.326.166.682.166 1.069v.102c0 .384-.055.741-.166 1.069s-.273.61-.488.855-.472.428-.781.562-.664.2-1.065.2-.756-.067-1.069-.2-.571-.321-.786-.562-.373-.529-.483-.855-.166-.685-.166-1.069zm1.406-.102v.102c0 .221.019.428.058.62a1.69 1.69 0 0 0 .186.508.97.97 0 0 0 .342.337c.14.081.311.122.512.122s.363-.041.503-.122.253-.194.337-.337.147-.316.186-.508a2.9 2.9 0 0 0 .063-.62v-.102c0-.215-.021-.417-.063-.606s-.103-.361-.191-.508-.197-.267-.336-.352-.31-.127-.508-.127-.368.042-.508.127-.249.202-.337.352a1.69 1.69 0 0 0-.186.508 2.99 2.99 0 0 0-.058.606zm7.588 1.426v-4.019h1.406V85.5h-1.323l-.083-1.265zm.156-1.084l.415-.01c0 .352-.041.679-.122.981a2.33 2.33 0 0 1-.366.781c-.163.218-.368.389-.615.513s-.539.181-.875.181a2.27 2.27 0 0 1-.712-.108 1.45 1.45 0 0 1-.557-.347 1.68 1.68 0 0 1-.361-.61c-.085-.251-.127-.552-.127-.903v-3.413h1.406v3.423c0 .156.018.288.054.396a.7.7 0 0 0 .161.264c.068.068.148.117.239.147a1.05 1.05 0 0 0 .313.044c.289 0 .517-.059.683-.176s.288-.277.357-.479a2.08 2.08 0 0 0 .107-.684zm5.444 1.196V78h1.416v7.5h-1.274l-.142-1.152zm-3.34-1.426v-.103c0-.404.046-.77.137-1.099s.225-.617.401-.854.392-.422.649-.552.55-.195.879-.195c.309 0 .579.065.81.195s.433.316.596.557.3.519.401.845.174.675.219 1.06V83c-.045.368-.119.71-.219 1.025s-.235.592-.401.83-.361.417-.596.547-.507.195-.82.195a1.88 1.88 0 0 1-.879-.2c-.254-.133-.469-.321-.644-.562s-.305-.524-.396-.85-.137-.68-.137-1.064zm1.407-.103v.103a3.55 3.55 0 0 0 .049.61 1.74 1.74 0 0 0 .17.503c.082.143.186.255.313.337s.288.117.474.117c.24 0 .439-.054.595-.161s.275-.262.357-.454.133-.413.146-.664v-.64c-.01-.205-.039-.389-.088-.552s-.114-.308-.205-.425a.9.9 0 0 0-.332-.273c-.13-.065-.285-.098-.464-.098a.84.84 0 0 0-.468.127.93.93 0 0 0-.318.337c-.078.143-.136.313-.176.508a3.49 3.49 0 0 0-.053.625z" class="C"/><path d="M648.81 143.57v170.5h183.18v-170.5H648.81z" fill="#f1e3ff" fill-opacity=".49" stroke="#306" stroke-dasharray="3 3"/><path d="M819.652 239.107h6.299v1.406h-7.314v-1.304l1.015-.102zm1.568-3.345h.102c.384 0 .741.046 1.07.137s.615.218.859.391a1.84 1.84 0 0 1 .566.644c.134.254.201.547.201.879 0 .322-.066.602-.196.84a1.74 1.74 0 0 1-.547.6 3.11 3.11 0 0 1-.825.386c-.312.098-.648.173-1.006.225h-.268c-.384-.052-.736-.127-1.055-.225s-.6-.226-.835-.386-.421-.361-.552-.595-.195-.516-.195-.835c0-.336.064-.63.19-.884a1.75 1.75 0 0 1 .547-.645c.238-.175.521-.307.85-.395s.693-.137 1.094-.137zm.102 1.411h-.102c-.225 0-.432.02-.62.059s-.36.094-.503.176-.254.182-.332.312-.122.282-.122.464c0 .192.031.357.092.493a.82.82 0 0 0 .269.327 1.23 1.23 0 0 0 .42.191 2.76 2.76 0 0 0 .552.078h.678c.241-.016.458-.062.65-.137a.98.98 0 0 0 .449-.346c.111-.157.166-.362.166-.616 0-.185-.041-.341-.122-.468s-.2-.23-.347-.308a1.6 1.6 0 0 0-.508-.171 3.36 3.36 0 0 0-.62-.054zm-1.533-3.691h4.131v1.406h-5.283v-1.323l1.152-.083zm-1.186-1.592l1.303.025a3.02 3.02 0 0 0-.024.249l-.015.258a1.55 1.55 0 0 0 .078.518c.049.143.122.264.22.361s.217.166.356.215a1.72 1.72 0 0 0 .479.078l-.088.283c-.342 0-.656-.034-.942-.102s-.542-.168-.757-.298-.381-.296-.498-.488-.176-.412-.176-.659c0-.079.007-.158.02-.24a.82.82 0 0 1 .044-.2zm.034-2.148h5.283v1.411h-5.283v-1.411zm-1.377 1.499c-.205 0-.375-.072-.508-.215s-.2-.335-.2-.576.066-.428.2-.572.303-.219.508-.219a.66.66 0 0 1 .508.219c.133.144.2.334.2.572s-.067.433-.2.576-.303.215-.508.215zm5.635-4.458l-4.258-1.172v-1.47l5.283 1.782v.889l-1.025-.029zm-4.258.805l4.262-1.176 1.021-.025v.894l-5.283 1.782v-1.475zm4.092-6.85h-2.354a1.03 1.03 0 0 0-.435.083.62.62 0 0 0-.288.259c-.068.114-.102.262-.102.444a.91.91 0 0 0 .083.405c.052.114.128.202.229.264s.214.093.347.093v1.406a1.38 1.38 0 0 1-.64-.156c-.201-.105-.379-.256-.532-.454a2.26 2.26 0 0 1-.366-.708c-.088-.277-.132-.586-.132-.928a2.75 2.75 0 0 1 .205-1.094c.137-.319.342-.57.615-.752s.616-.278 1.026-.278h2.261c.289 0 .527-.018.712-.054s.342-.088.479-.156h.083v1.421c-.143.068-.322.12-.537.156s-.436.049-.654.049zm-2.027-.186l.796-.01v.787a1.62 1.62 0 0 0 .064.483c.042.137.102.249.18.337s.163.153.264.195a.91.91 0 0 0 .332.059c.12 0 .229-.028.327-.083s.169-.135.225-.239.078-.227.078-.367c0-.211-.043-.395-.127-.551a1.01 1.01 0 0 0-.313-.362c-.123-.088-.241-.133-.351-.136l.595-.372c.134.053.272.124.416.215a1.94 1.94 0 0 1 .405.337c.123.137.226.301.307.493s.118.42.118.684c0 .335-.067.64-.201.913a1.67 1.67 0 0 1-.561.645c-.241.156-.514.234-.82.234-.277 0-.523-.052-.738-.156a1.44 1.44 0 0 1-.542-.459c-.149-.205-.262-.461-.337-.767s-.117-.661-.117-1.064v-.816zm-2.065-4.902h.996v3.076h-.996v-3.076zm-1.304 2.314v-1.406h4.995c.153 0 .27-.019.352-.058a.36.36 0 0 0 .171-.186c.029-.081.044-.184.044-.308l-.01-.234-.03-.181 1.036-.005c.039.121.07.251.092.391s.035.295.035.464c0 .309-.051.579-.152.81s-.27.404-.498.528-.527.185-.898.185h-5.137zm6.685-5.547c0 .411-.066.778-.196 1.104s-.317.602-.551.83-.507.397-.816.518a2.75 2.75 0 0 1-.996.18h-.195c-.401 0-.767-.057-1.099-.171s-.62-.276-.864-.488-.432-.475-.562-.781-.2-.651-.2-1.035c0-.375.062-.707.186-.996a1.94 1.94 0 0 1 .527-.728c.228-.198.501-.348.82-.449s.668-.151 1.055-.151h.586v4.199h-.938v-2.818h-.107c-.195 0-.369.036-.522.108a.83.83 0 0 0-.372.312c-.091.14-.136.319-.136.537 0 .186.04.345.122.479s.195.242.342.327a1.89 1.89 0 0 0 .517.186c.195.039.41.058.645.058h.195a1.86 1.86 0 0 0 .586-.088 1.44 1.44 0 0 0 .464-.258 1.19 1.19 0 0 0 .303-.411 1.36 1.36 0 0 0 .107-.551c0-.254-.049-.49-.147-.708s-.252-.412-.454-.572l.743-.683c.159.11.312.262.459.454a2.45 2.45 0 0 1 .361.683c.091.267.137.572.137.913zm-1.099-7.641c0-.173-.033-.326-.098-.459s-.162-.238-.283-.313-.268-.118-.434-.122v-1.323a1.76 1.76 0 0 1 .991.298c.286.195.512.457.678.786s.245.697.245 1.104-.069.768-.206 1.074-.325.555-.566.757a2.49 2.49 0 0 1-.85.454 3.5 3.5 0 0 1-1.044.151h-.142c-.374 0-.723-.05-1.045-.151s-.609-.253-.85-.454-.434-.454-.571-.757-.205-.658-.205-1.065c0-.433.083-.812.249-1.137a1.86 1.86 0 0 1 .713-.772c.306-.189.669-.285 1.089-.288v1.323a1.11 1.11 0 0 0-.479.113c-.143.068-.257.169-.341.302s-.132.292-.132.484c0 .205.044.372.132.503a.83.83 0 0 0 .351.302c.147.072.314.122.503.152a4.23 4.23 0 0 0 .586.039h.142a4.31 4.31 0 0 0 .59-.039c.189-.026.357-.075.503-.147s.262-.177.347-.307.127-.3.127-.508zm-1.587-2.808h-.103c-.387 0-.743-.055-1.069-.166a2.47 2.47 0 0 1-.854-.483c-.241-.212-.428-.472-.562-.781s-.205-.664-.205-1.065.068-.757.205-1.069.321-.575.562-.786.525-.378.854-.489.682-.166 1.069-.166h.103c.384 0 .741.056 1.069.166s.611.274.855.489.428.472.561.781.201.664.201 1.064-.067.757-.201 1.07-.32.571-.561.786a2.53 2.53 0 0 1-.855.483c-.328.111-.685.166-1.069.166zm-.103-1.406h.103c.221 0 .428-.02.62-.059a1.67 1.67 0 0 0 .508-.185c.143-.088.255-.202.337-.342a1.01 1.01 0 0 0 .122-.513.99.99 0 0 0-.122-.503.93.93 0 0 0-.337-.336 1.67 1.67 0 0 0-.508-.186 2.9 2.9 0 0 0-.62-.063h-.103c-.214 0-.416.021-.605.063s-.361.103-.508.19a.94.94 0 0 0-.351.337c-.085.14-.127.31-.127.508a.96.96 0 0 0 .127.508.99.99 0 0 0 .351.337 1.67 1.67 0 0 0 .508.185 2.99 2.99 0 0 0 .605.059zm-1.499-5.869h4.19v1.411h-5.283v-1.323l1.093-.088zm1.363.195v.391c-.368 0-.707-.044-1.016-.132a2.46 2.46 0 0 1-.81-.396c-.232-.175-.411-.392-.538-.649s-.19-.555-.19-.894a1.87 1.87 0 0 1 .107-.644c.069-.195.178-.363.328-.503s.338-.254.576-.332.516-.117.845-.117h3.525v1.406h-3.369c-.241 0-.427.033-.557.098s-.221.158-.273.278-.078.259-.078.425c0 .182.037.342.112.478s.179.245.312.332.284.153.459.196a2.44 2.44 0 0 0 .567.063zm-.161-3.144l.063.503c-.345 0-.666-.043-.962-.127a2.45 2.45 0 0 1-.781-.386c-.225-.173-.399-.386-.523-.64s-.19-.547-.19-.879a2.03 2.03 0 0 1 .112-.693 1.28 1.28 0 0 1 .347-.532 1.51 1.51 0 0 1 .615-.342c.254-.081.565-.122.933-.122h3.374v1.411h-3.374c-.244 0-.43.033-.557.098s-.219.153-.268.273a1.03 1.03 0 0 0-.078.42c0 .169.034.317.102.444a.88.88 0 0 0 .274.318 1.25 1.25 0 0 0 .41.19 1.89 1.89 0 0 0 .503.064zm-1.28-5.713h6.299v1.406h-7.314v-1.304l1.015-.102zm1.568-3.345h.102c.384 0 .741.046 1.07.137s.615.218.859.39.43.388.566.645.201.547.201.879c0 .322-.066.602-.196.84s-.312.437-.547.6-.512.288-.825.386-.648.173-1.006.225h-.268c-.384-.052-.736-.127-1.055-.225s-.6-.226-.835-.386-.421-.361-.552-.595-.195-.516-.195-.835c0-.336.064-.63.19-.884a1.75 1.75 0 0 1 .547-.645c.238-.176.521-.307.85-.395s.693-.137 1.094-.137zm.102 1.411h-.102c-.225 0-.432.02-.62.059s-.36.094-.503.176-.254.182-.332.312-.122.282-.122.464c0 .192.031.356.092.493a.82.82 0 0 0 .269.327c.117.085.257.148.42.191a2.76 2.76 0 0 0 .552.078h.678c.241-.016.458-.062.65-.137s.338-.19.449-.347.166-.361.166-.615c0-.185-.041-.342-.122-.469s-.2-.229-.347-.307-.316-.139-.508-.171a3.36 3.36 0 0 0-.62-.054zm.01-2.06h-.103c-.387 0-.743-.056-1.069-.166a2.47 2.47 0 0 1-.854-.484 2.17 2.17 0 0 1-.562-.781c-.137-.309-.205-.664-.205-1.064s.068-.757.205-1.07a2.17 2.17 0 0 1 .562-.786c.241-.215.525-.378.854-.488s.682-.166 1.069-.166h.103c.384 0 .741.055 1.069.166s.611.273.855.488.428.472.561.781.201.664.201 1.065-.067.757-.201 1.069-.32.571-.561.786a2.53 2.53 0 0 1-.855.484c-.328.11-.685.166-1.069.166zm-.103-1.407h.103c.221 0 .428-.019.62-.058a1.67 1.67 0 0 0 .508-.186c.143-.088.255-.202.337-.342s.122-.31.122-.512c0-.196-.041-.363-.122-.503a.94.94 0 0 0-.337-.337 1.67 1.67 0 0 0-.508-.186 2.9 2.9 0 0 0-.62-.063h-.103c-.214 0-.416.021-.605.063a1.6 1.6 0 0 0-.508.191c-.15.084-.267.197-.351.337a.96.96 0 0 0-.127.508c0 .198.042.367.127.507a.99.99 0 0 0 .351.337 1.67 1.67 0 0 0 .508.186c.189.039.391.058.605.058zm-1.464-5.839h4.155v1.406h-5.283v-1.319l1.128-.087zm1.328.205v.38c-.391 0-.742-.05-1.055-.151s-.584-.242-.806-.425a1.82 1.82 0 0 1-.512-.649 1.95 1.95 0 0 1-.181-.85 2.06 2.06 0 0 1 .107-.678c.072-.206.186-.381.342-.528s.363-.263.62-.342.572-.122.943-.122h3.369v1.416h-3.374c-.234 0-.417.033-.547.098s-.221.161-.273.288-.083.277-.083.459c0 .189.037.353.112.493a.98.98 0 0 0 .312.342c.131.088.284.155.459.2s.365.069.567.069zm2.925-6.866c0 .411-.066.778-.196 1.104s-.317.602-.551.83-.507.397-.816.518a2.75 2.75 0 0 1-.996.18h-.195c-.401 0-.767-.057-1.099-.171s-.62-.276-.864-.488-.432-.475-.562-.781-.2-.651-.2-1.035c0-.375.062-.707.186-.996a1.94 1.94 0 0 1 .527-.728 2.27 2.27 0 0 1 .82-.449c.316-.101.668-.152 1.055-.152h.586v4.2h-.938v-2.818h-.107c-.195 0-.369.036-.522.108a.83.83 0 0 0-.372.312c-.091.14-.136.319-.136.537 0 .186.04.345.122.479s.195.242.342.327a1.86 1.86 0 0 0 .517.185 3.22 3.22 0 0 0 .645.059h.195a1.86 1.86 0 0 0 .586-.088c.179-.062.334-.148.464-.259s.231-.25.303-.41.107-.346.107-.552c0-.253-.049-.489-.147-.708s-.252-.411-.454-.571l.743-.683c.159.11.312.262.459.454s.266.416.361.683.137.572.137.913zm-4.253-4.345h4.155v1.406h-5.283v-1.318l1.128-.088zm1.328.205v.381c-.391 0-.742-.051-1.055-.152s-.584-.242-.806-.425a1.82 1.82 0 0 1-.512-.649 1.95 1.95 0 0 1-.181-.85 2.06 2.06 0 0 1 .107-.678 1.31 1.31 0 0 1 .342-.528c.157-.149.363-.263.62-.341s.572-.123.943-.123h3.369v1.417h-3.374c-.234 0-.417.032-.547.097s-.221.161-.273.288-.083.277-.083.459c0 .189.037.353.112.493a.98.98 0 0 0 .312.342c.131.088.284.155.459.2s.365.069.567.069zm-2.456-7.022h.996v3.076h-.996v-3.076zm-1.304 2.315v-1.407h4.995c.153 0 .27-.019.352-.058s.138-.104.171-.186.044-.184.044-.307l-.01-.235-.03-.18 1.036-.005c.039.12.07.25.092.39s.035.295.035.464a2.01 2.01 0 0 1-.152.811c-.104.228-.27.403-.498.527s-.527.186-.898.186h-5.137zm5.127-5.972a.45.45 0 0 0-.273.088c-.082.059-.157.168-.225.327s-.137.383-.195.679c-.059.267-.132.516-.22.747a2.6 2.6 0 0 1-.327.596 1.42 1.42 0 0 1-.449.39c-.176.095-.376.142-.601.142a1.41 1.41 0 0 1-.625-.142 1.61 1.61 0 0 1-.518-.415 1.97 1.97 0 0 1-.356-.664 2.8 2.8 0 0 1-.132-.889c0-.459.073-.852.22-1.181s.348-.586.605-.762.544-.269.869-.269v1.407a.75.75 0 0 0-.366.088c-.11.055-.197.143-.259.263s-.097.27-.097.459a.91.91 0 0 0 .083.406.62.62 0 0 0 .215.263.51.51 0 0 0 .293.088c.081 0 .154-.016.219-.049s.119-.092.171-.171.101-.179.147-.302.081-.284.117-.469a5.47 5.47 0 0 1 .307-1.021 1.77 1.77 0 0 1 .508-.712c.212-.176.49-.264.835-.264a1.35 1.35 0 0 1 .645.156c.195.104.366.254.512.449s.256.43.337.703a3.26 3.26 0 0 1 .118.914c0 .491-.088.908-.264 1.25s-.399.595-.669.771a1.55 1.55 0 0 1-.84.259v-1.333c.192-.007.347-.056.464-.147a.8.8 0 0 0 .254-.356c.052-.147.078-.304.078-.474 0-.182-.024-.333-.073-.454s-.121-.211-.205-.273-.189-.098-.303-.098z" fill="#306"/><path d="M343 46H103V358H343V46Z" class="B D"/><path d="M292.229 58.499a1.03 1.03 0 0 0 .459-.098c.134-.068.238-.163.313-.283s.119-.269.122-.435h1.323c-.003.371-.102.702-.298.991s-.457.513-.786.679-.696.244-1.103.244-.768-.068-1.074-.205-.555-.325-.757-.566a2.48 2.48 0 0 1-.454-.85 3.51 3.51 0 0 1-.152-1.045v-.142c0-.374.051-.723.152-1.045s.252-.609.454-.85.454-.435.757-.571.657-.205 1.064-.205c.433 0 .812.083 1.138.249s.586.404.771.713.285.669.288 1.089h-1.323c-.003-.176-.041-.335-.112-.478a.82.82 0 0 0-.303-.342c-.13-.088-.291-.132-.483-.132-.205 0-.373.044-.503.132a.84.84 0 0 0-.303.352 1.73 1.73 0 0 0-.151.503c-.026.186-.039.381-.039.586v.142a4.33 4.33 0 0 0 .039.591 1.64 1.64 0 0 0 .146.503.88.88 0 0 0 .308.347c.13.085.299.127.507.127zM296.746 52v7.5h-1.411V52h1.411zm2.647 2.217V59.5h-1.412v-5.283h1.412zm-1.499-1.377c0-.205.071-.374.214-.508s.336-.2.577-.2.428.067.571.2a.66.66 0 0 1 .22.508.66.66 0 0 1-.22.508c-.143.133-.334.2-.571.2s-.433-.067-.577-.2-.214-.303-.214-.508zm5.092 6.758c-.41 0-.778-.065-1.103-.195s-.602-.317-.83-.552-.397-.506-.518-.815-.181-.645-.181-.996v-.195c0-.4.057-.767.171-1.099a2.58 2.58 0 0 1 .489-.864c.215-.244.475-.431.781-.562s.651-.2 1.035-.2c.374 0 .706.062.996.186s.532.3.728.527.348.501.449.82.151.667.151 1.055v.586h-4.199v-.937h2.817v-.108c0-.195-.035-.369-.107-.522s-.172-.28-.312-.371-.319-.137-.538-.137a.9.9 0 0 0-.478.122c-.134.081-.243.195-.327.342s-.143.319-.186.518a3.3 3.3 0 0 0-.058.645v.195c0 .212.029.407.088.586s.148.334.258.464.251.231.41.303a1.36 1.36 0 0 0 .552.107 1.71 1.71 0 0 0 .708-.147c.222-.101.412-.252.572-.454l.683.742c-.111.16-.262.313-.454.459a2.43 2.43 0 0 1-.684.361c-.267.091-.571.137-.913.137zm4.346-4.253V59.5h-1.406v-5.283h1.318l.088 1.128zm-.205 1.328h-.381c0-.391.051-.742.151-1.055a2.41 2.41 0 0 1 .425-.806 1.83 1.83 0 0 1 .65-.513c.254-.12.537-.181.849-.181.248 0 .474.036.679.107s.381.186.527.342.264.363.342.62.122.571.122.942V59.5h-1.416v-3.374c0-.234-.032-.417-.097-.547s-.162-.221-.289-.273-.276-.083-.459-.083c-.188 0-.353.037-.493.112a.98.98 0 0 0-.341.313c-.088.13-.155.283-.201.459a2.28 2.28 0 0 0-.068.566zm7.021-2.456v.996h-3.076v-.996h3.076zm-2.314-1.304h1.406v4.995c0 .153.02.27.059.352a.35.35 0 0 0 .185.171c.082.029.184.044.308.044l.234-.01.181-.029.005 1.035a2.66 2.66 0 0 1-.391.093 2.89 2.89 0 0 1-.464.034 2.01 2.01 0 0 1-.81-.151 1.11 1.11 0 0 1-.527-.498c-.124-.228-.186-.527-.186-.898v-5.137zm5.889 2.983V57h-2.759v-1.103h2.759zm4.028 2.143c0-.101-.029-.192-.088-.273s-.168-.156-.327-.225-.383-.137-.679-.195a5.3 5.3 0 0 1-.747-.22c-.228-.091-.426-.2-.596-.327s-.296-.277-.39-.449-.142-.376-.142-.601a1.41 1.41 0 0 1 .142-.625c.097-.195.236-.368.415-.518s.404-.272.664-.356.56-.132.889-.132c.459 0 .852.073 1.181.22s.586.348.762.605a1.47 1.47 0 0 1 .269.869h-1.407c0-.137-.029-.259-.088-.366a.58.58 0 0 0-.263-.259.94.94 0 0 0-.459-.098.92.92 0 0 0-.406.083c-.113.052-.201.124-.263.215s-.088.185-.088.293a.48.48 0 0 0 .049.22c.036.062.092.119.171.171s.179.101.302.147.284.081.469.117a5.41 5.41 0 0 1 1.021.308c.299.124.537.293.712.508s.264.49.264.835a1.35 1.35 0 0 1-.156.645c-.104.195-.254.366-.449.513a2.29 2.29 0 0 1-.703.337c-.271.078-.575.117-.914.117-.491 0-.908-.088-1.25-.264s-.595-.399-.771-.669-.259-.553-.259-.84h1.333c.007.192.056.347.147.464a.8.8 0 0 0 .356.254 1.41 1.41 0 0 0 .474.078 1.22 1.22 0 0 0 .454-.073c.12-.052.211-.12.273-.205s.098-.189.098-.303zm3.765-3.823V59.5h-1.412v-5.283h1.412zm-1.499-1.377c0-.205.071-.374.214-.508s.336-.2.577-.2.428.067.571.2a.66.66 0 0 1 .22.508.66.66 0 0 1-.22.508c-.143.133-.334.2-.571.2s-.433-.067-.577-.2-.214-.303-.214-.508zm5.781 5.508V52h1.416v7.5h-1.275l-.141-1.152zm-3.34-1.426v-.103c0-.404.046-.77.137-1.099s.224-.617.4-.855a1.82 1.82 0 0 1 .65-.552c.257-.13.55-.195.878-.195.31 0 .58.065.811.195s.433.316.596.557.299.519.4.845.174.675.22 1.06V57c-.046.368-.119.71-.22 1.025s-.234.592-.4.83a1.77 1.77 0 0 1-.596.547 1.66 1.66 0 0 1-.82.195 1.88 1.88 0 0 1-.879-.2 1.87 1.87 0 0 1-.645-.562c-.172-.241-.304-.524-.395-.85s-.137-.68-.137-1.064zm1.406-.103v.103a3.65 3.65 0 0 0 .049.61 1.77 1.77 0 0 0 .171.503.95.95 0 0 0 .312.337.91.91 0 0 0 .474.117c.241 0 .44-.054.596-.161s.275-.262.356-.454a1.87 1.87 0 0 0 .147-.664v-.64c-.01-.205-.039-.389-.088-.552a1.21 1.21 0 0 0-.205-.425.91.91 0 0 0-.332-.273c-.13-.065-.285-.098-.464-.098s-.339.042-.469.127a.93.93 0 0 0-.317.337c-.078.143-.137.313-.176.508s-.054.4-.054.625zm6.88 2.778c-.41 0-.778-.065-1.103-.195a2.41 2.41 0 0 1-.83-.552 2.44 2.44 0 0 1-.518-.815c-.12-.312-.181-.645-.181-.996v-.195c0-.4.057-.767.171-1.099s.277-.62.488-.864a2.15 2.15 0 0 1 .782-.562c.306-.133.651-.2 1.035-.2.374 0 .706.062.996.186s.532.3.728.527.348.501.449.82.151.667.151 1.055v.586h-4.199v-.937h2.817v-.108c0-.195-.036-.369-.107-.522s-.173-.28-.313-.371-.319-.137-.537-.137a.9.9 0 0 0-.478.122c-.134.081-.243.195-.327.342s-.144.319-.186.518-.059.41-.059.645v.195a1.89 1.89 0 0 0 .088.586c.062.179.148.334.259.464s.251.231.41.303a1.36 1.36 0 0 0 .552.107 1.71 1.71 0 0 0 .708-.147 1.53 1.53 0 0 0 .571-.454l.684.742c-.111.16-.262.313-.454.459a2.43 2.43 0 0 1-.684.361c-.267.091-.571.137-.913.137z" class="C"/><g class="B"><path d="M51 163.885c2.761 0 5-2.295 5-5.125s-2.239-5.125-5-5.125-5 2.295-5 5.125 2.239 5.125 5 5.125z" class="G"/><path d="M51 180.96l10 13.67m-10-30.75v17.08-17.08zm0 3.42H41h10zm0 0h10-10zm0 13.66l-10 13.67 10-13.67z" class="E"/></g><path d="M44.172 209.235v-4.018h1.406v5.283h-1.323l-.083-1.265zm.156-1.084l.415-.009a3.77 3.77 0 0 1-.122.981c-.081.3-.203.56-.366.781s-.368.389-.615.513-.539.181-.874.181c-.257 0-.495-.036-.713-.108s-.4-.19-.557-.346a1.68 1.68 0 0 1-.361-.611c-.085-.25-.127-.552-.127-.903v-3.413h1.406v3.423c0 .156.018.288.054.395a.71.71 0 0 0 .161.264.59.59 0 0 0 .239.146 1.03 1.03 0 0 0 .313.044c.29 0 .517-.058.684-.176s.288-.276.356-.478.107-.433.107-.684zm5.181.889c0-.101-.029-.192-.088-.273s-.168-.157-.327-.225-.383-.137-.679-.195c-.267-.059-.516-.132-.747-.22a2.58 2.58 0 0 1-.596-.327c-.166-.127-.296-.277-.391-.449a1.25 1.25 0 0 1-.142-.601 1.42 1.42 0 0 1 .142-.625 1.62 1.62 0 0 1 .415-.518 1.97 1.97 0 0 1 .664-.356c.264-.088.56-.132.889-.132.459 0 .853.073 1.182.22s.586.348.762.605a1.47 1.47 0 0 1 .269.869h-1.406c0-.136-.029-.258-.088-.366s-.143-.197-.264-.259-.27-.097-.459-.097a.91.91 0 0 0-.405.083.62.62 0 0 0-.264.215c-.059.088-.088.185-.088.293 0 .081.016.154.049.219a.53.53 0 0 0 .171.171c.078.052.179.101.303.147a3.86 3.86 0 0 0 .469.117 5.38 5.38 0 0 1 1.02.308c.3.123.537.293.713.507s.264.49.264.835c0 .235-.052.45-.156.645s-.254.366-.449.513-.43.255-.703.336-.575.118-.913.118c-.492 0-.908-.088-1.25-.264s-.596-.399-.771-.669-.259-.553-.259-.84h1.333a.78.78 0 0 0 .146.464.8.8 0 0 0 .357.254c.146.052.304.078.474.078.182 0 .334-.024.454-.073a.65.65 0 0 0 .273-.205c.065-.088.098-.189.098-.303zm4.712 1.558c-.41 0-.778-.065-1.104-.196a2.42 2.42 0 0 1-.83-.551c-.225-.235-.397-.507-.518-.816s-.181-.644-.181-.996v-.195c0-.401.057-.767.171-1.099s.277-.62.488-.864.475-.431.781-.562.651-.2 1.035-.2c.374 0 .706.062.996.186a1.94 1.94 0 0 1 .728.527c.199.228.348.501.449.82a3.46 3.46 0 0 1 .151 1.055v.586H52.19v-.938h2.817v-.107c0-.195-.036-.369-.107-.522a.83.83 0 0 0-.312-.372c-.14-.091-.319-.136-.537-.136-.185 0-.345.04-.478.122s-.242.195-.327.342a1.86 1.86 0 0 0-.186.517c-.039.196-.059.41-.059.645v.195c0 .212.029.407.088.586s.148.334.259.464a1.19 1.19 0 0 0 .41.303c.163.071.347.107.552.107.254 0 .49-.049.708-.146s.412-.253.571-.455l.684.743c-.111.159-.262.312-.454.459s-.417.267-.684.361-.571.137-.913.137zm4.375-4.229v4.131H57.19v-5.283h1.323l.083 1.152zm1.592-1.186l-.024 1.303-.249-.024-.259-.015c-.199 0-.371.026-.518.078a.92.92 0 0 0-.361.22c-.094.098-.166.217-.215.357a1.75 1.75 0 0 0-.078.478l-.283-.088c0-.342.034-.656.102-.942s.168-.542.298-.757.296-.381.488-.498a1.24 1.24 0 0 1 .659-.176c.078 0 .158.007.239.02s.148.024.2.044z" class="C"/><path d="M138 247.13l20-146h162l-20 146H138z" class="B D E"/><path d="M209.339 116.5h-1.416v-5.752c0-.4.078-.737.234-1.011a1.54 1.54 0 0 1 .669-.625c.29-.143.633-.215 1.03-.215a2.28 2.28 0 0 1 .376.03l.352.063-.015 1.06a1.2 1.2 0 0 0-.195-.034c-.068-.007-.148-.01-.239-.01a.98.98 0 0 0-.435.088.58.58 0 0 0-.268.249c-.062.11-.093.246-.093.405v5.752zm1.055-5.283v.996h-3.257v-.996h3.257zm2.143 1.152v4.131h-1.406v-5.283h1.323l.083 1.152zm1.592-1.186l-.025 1.303-.249-.024-.258-.015a1.55 1.55 0 0 0-.518.078c-.143.049-.264.122-.361.22a.96.96 0 0 0-.215.357c-.046.14-.072.299-.078.478l-.283-.088c0-.342.034-.656.102-.942s.168-.542.298-.757.296-.381.488-.498.412-.176.659-.176c.079 0 .158.007.24.02a.82.82 0 0 1 .2.044zm.293 2.729v-.102c0-.388.055-.744.166-1.07s.272-.613.483-.854a2.17 2.17 0 0 1 .782-.562c.309-.136.664-.205 1.064-.205s.757.069 1.069.205.575.321.786.562.378.525.489.854.166.682.166 1.07v.102c0 .384-.056.741-.166 1.069s-.274.611-.489.855-.472.428-.781.561-.664.201-1.064.201-.757-.067-1.07-.201-.571-.32-.786-.561-.372-.529-.483-.855-.166-.685-.166-1.069zm1.406-.102v.102c0 .221.02.428.059.62s.101.362.185.508.202.256.342.337a1.01 1.01 0 0 0 .513.122.99.99 0 0 0 .503-.122.93.93 0 0 0 .337-.337c.084-.146.146-.316.185-.508a2.9 2.9 0 0 0 .064-.62v-.102a2.79 2.79 0 0 0-.064-.606 1.6 1.6 0 0 0-.19-.508c-.085-.149-.197-.267-.337-.351a.96.96 0 0 0-.508-.127.96.96 0 0 0-.508.127c-.137.084-.249.202-.337.351s-.146.316-.185.508-.059.391-.059.606zm5.84-1.465v4.155h-1.406v-5.283h1.318l.088 1.128zm-.205 1.328h-.381c0-.391.05-.742.151-1.055s.243-.584.425-.806.399-.395.65-.512a1.95 1.95 0 0 1 .849-.181c.248 0 .474.036.679.108a1.29 1.29 0 0 1 .527.341c.15.157.264.363.342.62s.122.572.122.943v3.369h-1.416v-3.374c0-.234-.032-.417-.098-.547s-.161-.221-.288-.273-.276-.083-.459-.083a1.03 1.03 0 0 0-.493.112 1 1 0 0 0-.342.312c-.087.131-.154.284-.2.459s-.068.365-.068.567zm7.021-2.456v.996h-3.076v-.996h3.076zm-2.314-1.304h1.406v4.995a.84.84 0 0 0 .059.352c.042.081.104.138.185.171a.93.93 0 0 0 .308.044l.234-.01.181-.029.005 1.035c-.121.039-.251.07-.391.092s-.294.035-.464.035c-.309 0-.579-.051-.81-.152s-.404-.27-.528-.498-.185-.527-.185-.898v-5.137zm5.889 2.983V114H229.3v-1.104h2.759zm3.603 3.702a2.93 2.93 0 0 1-1.103-.196c-.326-.133-.603-.317-.83-.551a2.45 2.45 0 0 1-.518-.816 2.73 2.73 0 0 1-.181-.996v-.195c0-.401.057-.767.171-1.099s.277-.62.488-.864a2.16 2.16 0 0 1 .782-.562c.306-.133.651-.2 1.035-.2.374 0 .706.062.996.186s.532.299.727.527a2.27 2.27 0 0 1 .45.82c.101.316.151.668.151 1.055v.586h-4.199v-.938h2.817v-.107c0-.195-.036-.369-.107-.522s-.173-.28-.313-.372-.319-.136-.537-.136c-.185 0-.345.04-.478.122s-.243.195-.327.342-.144.319-.186.517a3.3 3.3 0 0 0-.059.645v.195a1.89 1.89 0 0 0 .088.586c.062.179.148.334.259.464s.251.231.41.303a1.37 1.37 0 0 0 .552.107 1.72 1.72 0 0 0 .708-.146c.221-.101.412-.253.571-.455l.684.743a2.11 2.11 0 0 1-.454.459 2.43 2.43 0 0 1-.684.361c-.267.091-.571.137-.913.137zm4.346-4.253v4.155h-1.406v-5.283h1.318l.088 1.128zm-.205 1.328h-.381c0-.391.05-.742.151-1.055s.243-.584.425-.806a1.83 1.83 0 0 1 .649-.512c.254-.121.538-.181.85-.181a2.04 2.04 0 0 1 .679.108 1.29 1.29 0 0 1 .527.341c.15.157.264.363.342.62s.122.572.122.943v3.369h-1.416v-3.374c0-.234-.033-.417-.098-.547s-.161-.221-.288-.273-.276-.083-.459-.083c-.189 0-.353.037-.493.112a.98.98 0 0 0-.342.312 1.5 1.5 0 0 0-.2.459c-.045.176-.068.365-.068.567zm7.553 1.675V109h1.416v7.5h-1.274l-.142-1.152zm-3.339-1.426v-.103a4.11 4.11 0 0 1 .136-1.098c.091-.332.225-.617.401-.855s.392-.421.649-.552a1.92 1.92 0 0 1 .879-.195 1.63 1.63 0 0 1 .811.195c.234.131.433.316.595.557s.3.519.401.845a5.79 5.79 0 0 1 .219 1.059V114a5.57 5.57 0 0 1-.219 1.025c-.101.316-.235.593-.401.83a1.75 1.75 0 0 1-.595.547c-.235.131-.508.196-.821.196-.329 0-.621-.067-.879-.201s-.468-.32-.644-.561-.305-.524-.396-.85-.136-.68-.136-1.064zm1.406-.103v.103c0 .218.016.421.049.61s.092.357.171.503a.94.94 0 0 0 .312.337c.13.078.288.117.474.117.241 0 .439-.053.595-.161a1.04 1.04 0 0 0 .357-.454 1.89 1.89 0 0 0 .146-.664v-.64c-.009-.205-.039-.389-.088-.551s-.113-.308-.205-.425-.198-.209-.332-.274-.284-.097-.464-.097-.338.042-.468.127a.93.93 0 0 0-.318.337c-.078.143-.136.312-.175.507a3.4 3.4 0 0 0-.054.625z" class="C"/><path d="M290.5 128.13H197v24h93.5v-24z" class="B D"/><path d="M229.592 134v7.5h-.904V134h.904zm-.215 4.658l-.376-.014c.003-.362.057-.695.161-1.001s.251-.578.44-.806a1.94 1.94 0 0 1 .673-.527 1.99 1.99 0 0 1 .874-.191 2.15 2.15 0 0 1 .704.108c.208.068.385.179.532.332s.263.351.342.595.117.536.117.884v3.462h-.908v-3.472c0-.276-.041-.498-.123-.664a.75.75 0 0 0-.356-.366 1.28 1.28 0 0 0-.576-.117c-.225 0-.43.047-.615.141a1.47 1.47 0 0 0-.474.391c-.13.166-.233.357-.308.571a2.11 2.11 0 0 0-.107.674zm7.012 2.94a2.59 2.59 0 0 1-1.001-.186c-.297-.127-.552-.304-.767-.532s-.374-.498-.488-.811-.171-.654-.171-1.025v-.205c0-.43.063-.812.19-1.148a2.57 2.57 0 0 1 .518-.859 2.21 2.21 0 0 1 .742-.532c.277-.121.563-.181.859-.181.378 0 .704.065.977.195a1.79 1.79 0 0 1 .679.547c.176.231.306.505.39.821s.127.654.127 1.025v.405h-3.945v-.737h3.042v-.068c-.013-.235-.062-.463-.146-.684s-.212-.404-.391-.547-.423-.215-.733-.215a1.23 1.23 0 0 0-.566.132 1.21 1.21 0 0 0-.444.381c-.124.169-.22.376-.288.62s-.103.526-.103.845v.205c0 .251.034.487.103.708s.174.41.307.576.301.296.493.391.417.141.665.141c.319 0 .589-.065.81-.195s.415-.304.581-.522l.547.434c-.114.173-.259.337-.435.493a2.04 2.04 0 0 1-.649.381c-.254.098-.555.147-.903.147zm6.225-1.001v-2.72a1.1 1.1 0 0 0-.127-.542c-.081-.156-.205-.277-.371-.361a1.34 1.34 0 0 0-.615-.127c-.228 0-.428.039-.601.117s-.302.181-.4.307a.68.68 0 0 0-.142.411h-.903c0-.189.049-.376.147-.562s.237-.353.419-.503a2.1 2.1 0 0 1 .665-.361 2.62 2.62 0 0 1 .869-.137 2.48 2.48 0 0 1 1.015.195c.297.131.528.328.694.591s.254.588.254.982v2.461c0 .175.014.363.044.561s.079.37.141.513v.078h-.942c-.046-.104-.082-.243-.108-.415a3.36 3.36 0 0 1-.039-.488zm.157-2.3l.009.635h-.913c-.257 0-.486.021-.688.063a1.56 1.56 0 0 0-.508.181c-.137.081-.241.184-.313.307s-.107.262-.107.425.037.318.112.454.187.246.337.327.34.118.562.118c.276 0 .521-.059.732-.176s.379-.261.503-.43.195-.333.205-.493l.386.435a1.32 1.32 0 0 1-.186.454c-.101.166-.236.325-.405.478s-.365.275-.596.376a1.93 1.93 0 0 1-.771.147c-.358 0-.672-.07-.942-.21s-.476-.327-.626-.562a1.49 1.49 0 0 1-.219-.796c0-.283.055-.532.166-.747s.27-.399.478-.542.459-.257.752-.332.62-.112.982-.112h1.05zm5.498 2.178V134h.908v7.5h-.83l-.078-1.025zm-3.555-1.558v-.103c0-.403.049-.769.146-1.098s.243-.617.425-.855.405-.42.659-.547a1.88 1.88 0 0 1 .86-.195c.332 0 .621.059.869.176a1.67 1.67 0 0 1 .635.503c.175.218.314.482.415.791s.171.659.21 1.05v.449c-.036.387-.106.736-.21 1.045s-.24.573-.415.791a1.74 1.74 0 0 1-.635.503c-.251.114-.544.171-.879.171-.309 0-.593-.067-.85-.201a2 2 0 0 1-.659-.561c-.182-.241-.324-.524-.425-.85a3.76 3.76 0 0 1-.146-1.069zm.908-.103v.103a3.37 3.37 0 0 0 .078.742c.056.231.14.435.254.611a1.27 1.27 0 0 0 .435.415 1.28 1.28 0 0 0 .63.146c.299 0 .545-.063.737-.19s.351-.295.469-.503.208-.435.273-.679v-1.177a2.59 2.59 0 0 0-.171-.517 1.59 1.59 0 0 0-.283-.45 1.23 1.23 0 0 0-.425-.317c-.166-.078-.363-.117-.591-.117a1.25 1.25 0 0 0-.639.156c-.176.101-.321.241-.435.42a1.96 1.96 0 0 0-.254.615c-.052.231-.078.479-.078.742zm7.153 2.784c-.367 0-.701-.062-1.001-.186a2.27 2.27 0 0 1-.766-.532c-.212-.228-.375-.498-.488-.811s-.171-.654-.171-1.025v-.205c0-.43.063-.812.19-1.148a2.57 2.57 0 0 1 .518-.859 2.21 2.21 0 0 1 .742-.532c.277-.121.563-.181.859-.181.378 0 .703.065.977.195a1.79 1.79 0 0 1 .678.547c.176.231.306.505.391.821s.127.654.127 1.025v.405h-3.945v-.737h3.042v-.068a2.24 2.24 0 0 0-.147-.684c-.081-.221-.211-.404-.39-.547s-.424-.215-.733-.215c-.205 0-.394.044-.566.132s-.321.212-.445.381-.219.376-.288.62a3.16 3.16 0 0 0-.102.845v.205c0 .251.034.487.102.708a1.83 1.83 0 0 0 .308.576c.137.166.301.296.493.391s.417.141.664.141c.319 0 .589-.065.811-.195s.415-.304.581-.522l.547.434c-.114.173-.259.337-.435.493a2.05 2.05 0 0 1-.649.381c-.254.098-.555.147-.904.147zm4.014-4.551v4.453h-.903v-5.283h.879l.024.83zm1.65-.859l-.004.839c-.075-.016-.147-.026-.215-.029l-.225-.01c-.208 0-.392.033-.552.098a1.15 1.15 0 0 0-.405.273c-.111.118-.198.258-.264.42s-.102.336-.122.528l-.254.146c0-.319.031-.618.093-.898a2.46 2.46 0 0 1 .298-.743 1.46 1.46 0 0 1 .508-.507c.208-.124.456-.186.742-.186a1.16 1.16 0 0 1 .225.025.63.63 0 0 1 .175.044z" class="C"/><path d="M290.5 160.13H197v40h93.5v-40z" class="B D"/><path d="M233.184 174h.908v6.475l-.078 1.025h-.83V174zm4.477 4.814v.103a3.95 3.95 0 0 1-.137 1.069 2.62 2.62 0 0 1-.4.85 1.86 1.86 0 0 1-.645.561c-.253.134-.545.201-.874.201-.335 0-.629-.057-.883-.171a1.73 1.73 0 0 1-.635-.503c-.173-.218-.311-.482-.415-.791s-.171-.658-.21-1.045v-.449c.039-.391.109-.741.21-1.05s.242-.573.415-.791a1.66 1.66 0 0 1 .635-.503c.25-.117.542-.176.874-.176s.626.065.883.195.472.31.645.547a2.56 2.56 0 0 1 .4.855c.092.329.137.695.137 1.098zm-.908.103v-.103c0-.263-.024-.511-.073-.742s-.127-.439-.235-.615a1.17 1.17 0 0 0-.424-.42c-.176-.104-.393-.156-.65-.156-.228 0-.426.039-.596.117s-.307.184-.424.317-.214.28-.289.45a2.63 2.63 0 0 0-.161.517v1.177c.052.228.137.448.254.659s.28.379.479.513.451.2.747.2c.244 0 .452-.049.625-.146a1.19 1.19 0 0 0 .425-.415c.11-.176.192-.38.244-.611a3.37 3.37 0 0 0 .078-.742zm1.811 0v-.112c0-.381.056-.734.166-1.06s.271-.613.479-.854.461-.433.757-.567.628-.205.996-.205.705.069 1.001.205.553.322.762.567.372.525.483.854.166.679.166 1.06v.112c0 .381-.055.734-.166 1.06a2.55 2.55 0 0 1-.483.854 2.21 2.21 0 0 1-.757.566c-.293.134-.625.201-.996.201s-.705-.067-1.001-.201a2.25 2.25 0 0 1-.762-.566c-.208-.244-.368-.529-.479-.854s-.166-.679-.166-1.06zm.904-.112v.112c0 .264.031.513.093.747a1.94 1.94 0 0 0 .278.615c.127.179.285.321.473.425a1.38 1.38 0 0 0 .66.151c.247 0 .464-.05.649-.151s.345-.246.469-.425.216-.384.278-.615a2.78 2.78 0 0 0 .098-.747v-.112a2.72 2.72 0 0 0-.098-.738c-.062-.234-.156-.441-.283-.62s-.28-.325-.469-.429-.403-.157-.654-.157-.466.052-.654.157a1.4 1.4 0 0 0-.469.429c-.124.179-.217.386-.278.62s-.093.477-.093.738zm8.369 1.67V174h.908v7.5h-.83l-.078-1.025zm-3.555-1.558v-.103c0-.403.049-.769.147-1.098s.242-.617.425-.855.405-.42.659-.547.543-.195.859-.195c.332 0 .622.059.869.176a1.67 1.67 0 0 1 .635.503c.176.218.314.482.415.791s.171.659.21 1.05v.449c-.036.387-.106.736-.21 1.045s-.239.573-.415.791a1.74 1.74 0 0 1-.635.503c-.25.114-.543.171-.879.171a1.81 1.81 0 0 1-.849-.201 1.99 1.99 0 0 1-.659-.561c-.183-.241-.324-.524-.425-.85s-.147-.685-.147-1.069zm.908-.103v.103a3.31 3.31 0 0 0 .079.742c.055.231.14.435.253.611a1.27 1.27 0 0 0 .435.415c.176.097.386.146.63.146.299 0 .545-.063.737-.19s.352-.295.469-.503.208-.435.273-.679v-1.177c-.039-.179-.096-.351-.17-.517s-.167-.319-.284-.45-.255-.239-.424-.317-.363-.117-.591-.117c-.248 0-.461.052-.64.156s-.321.241-.435.42a1.96 1.96 0 0 0-.253.615c-.053.231-.079.479-.079.742zm6.446 2.139l1.469-4.736h.967l-2.119 6.098a3.33 3.33 0 0 1-.195.42c-.078.153-.179.298-.303.435s-.273.247-.449.332a1.35 1.35 0 0 1-.62.132c-.072 0-.163-.01-.274-.03l-.234-.048-.005-.733.122.01.122.01c.205 0 .379-.028.523-.083s.263-.142.361-.269.187-.294.259-.512l.376-1.026zm-1.079-4.736l1.372 4.101.234.953-.649.332-1.944-5.386h.987z" class="C"/><path d="M290.5 208.13H197v24h93.5v-24z" class="B D"/><path d="M232.036 221.5h-.903v-5.84c0-.381.068-.701.205-.962a1.38 1.38 0 0 1 .6-.595 1.97 1.97 0 0 1 .928-.206 2.53 2.53 0 0 1 .313.02 2.42 2.42 0 0 1 .312.059l-.049.737c-.068-.016-.146-.028-.234-.034l-.254-.01c-.192 0-.358.039-.498.117s-.241.186-.312.332-.108.327-.108.542v5.84zm1.123-5.283v.693h-2.861v-.693h2.861zm.767 2.7v-.112c0-.381.055-.734.166-1.06s.27-.613.478-.854a2.14 2.14 0 0 1 .757-.567c.296-.136.628-.205.996-.205s.705.069 1.001.205.554.322.762.567.373.525.483.854.166.679.166 1.06v.112c0 .381-.055.734-.166 1.06s-.271.61-.483.854-.461.43-.757.566-.625.201-.996.201-.705-.067-1.001-.201a2.26 2.26 0 0 1-.762-.566c-.208-.244-.368-.529-.478-.854s-.166-.679-.166-1.06zm.903-.112v.112c0 .264.031.513.093.747s.154.436.278.615.285.321.474.425.408.151.659.151.464-.05.649-.151.345-.246.469-.425a1.94 1.94 0 0 0 .278-.615 2.74 2.74 0 0 0 .098-.747v-.112a2.68 2.68 0 0 0-.098-.738c-.061-.234-.156-.441-.283-.62s-.28-.325-.468-.429a1.31 1.31 0 0 0-.655-.157c-.247 0-.465.052-.654.157a1.4 1.4 0 0 0-.469.429 1.96 1.96 0 0 0-.278.62c-.062.232-.093.477-.093.738zm4.8.112v-.112c0-.381.055-.734.166-1.06s.27-.613.478-.854a2.14 2.14 0 0 1 .757-.567c.296-.136.629-.205.996-.205s.705.069 1.001.205.554.322.762.567.373.525.483.854.166.679.166 1.06v.112c0 .381-.055.734-.166 1.06s-.271.61-.483.854-.461.43-.757.566-.625.201-.996.201-.705-.067-1.001-.201a2.26 2.26 0 0 1-.762-.566c-.208-.244-.367-.529-.478-.854s-.166-.679-.166-1.06zm.903-.112v.112c0 .264.031.513.093.747s.155.436.278.615.285.321.474.425.408.151.659.151a1.34 1.34 0 0 0 .65-.151 1.36 1.36 0 0 0 .468-.425c.124-.179.217-.384.279-.615a2.78 2.78 0 0 0 .097-.747v-.112a2.72 2.72 0 0 0-.097-.738c-.062-.234-.157-.441-.284-.62s-.28-.325-.468-.429a1.31 1.31 0 0 0-.655-.157c-.247 0-.465.052-.654.157a1.41 1.41 0 0 0-.469.429c-.123.179-.216.386-.278.62s-.093.477-.093.738zm7.251-2.588v.693h-2.856v-.693h2.856zm-1.889-1.284h.903v5.258c0 .179.028.315.083.406s.127.151.215.18a.87.87 0 0 0 .283.044c.075 0 .153-.006.234-.019l.191-.039.005.737a2.01 2.01 0 0 1-.284.063 2.13 2.13 0 0 1-.415.035c-.221 0-.424-.044-.61-.132s-.334-.235-.444-.44-.161-.488-.161-.839v-5.254zm5.141 6.665c-.368 0-.701-.062-1.001-.186a2.26 2.26 0 0 1-.766-.532c-.212-.228-.375-.498-.489-.811s-.171-.654-.171-1.025v-.205c0-.43.064-.812.191-1.148s.299-.625.517-.859.466-.412.743-.532a2.12 2.12 0 0 1 .859-.181c.378 0 .703.065.977.195s.502.313.678.547.306.505.391.821.127.654.127 1.025v.405h-3.945v-.737h3.042v-.068a2.27 2.27 0 0 0-.147-.684 1.23 1.23 0 0 0-.391-.547c-.179-.143-.423-.215-.732-.215-.205 0-.394.044-.566.132s-.321.212-.445.381-.219.376-.288.62a3.16 3.16 0 0 0-.102.845v.205c0 .251.034.487.102.708a1.81 1.81 0 0 0 .308.576c.136.166.301.296.493.391s.417.141.664.141c.319 0 .589-.065.811-.195s.415-.304.581-.522l.546.434c-.113.173-.258.337-.434.493s-.392.284-.65.381c-.253.098-.555.147-.903.147zm4.014-4.551v4.453h-.903v-5.283h.878l.025.83zm1.65-.859l-.005.839a1.3 1.3 0 0 0-.215-.029l-.224-.01c-.208 0-.392.033-.552.098a1.15 1.15 0 0 0-.405.273c-.111.118-.199.258-.264.42a2.04 2.04 0 0 0-.122.528l-.254.146c0-.319.031-.618.093-.898s.164-.528.298-.743a1.45 1.45 0 0 1 .508-.507c.208-.124.455-.186.742-.186.065 0 .14.008.224.025a.63.63 0 0 1 .176.044z" class="C"/><g stroke="#ff8000" class="E"><path d="M183.66 256.84l.34 21.04"/><path d="M183.51 247.84l4.57 4.42-4.42 4.58-4.57-4.43 4.42-4.57z" class="F"/></g><path d="M165.75 128.38v103.5h24v-103.5h-24z" class="B D"/><path d="M171.62 205.71h7.5v.908h-7.5v-.908zm6.597-4.565h-2.72a1.1 1.1 0 0 0-.542.127c-.156.081-.277.205-.361.371a1.34 1.34 0 0 0-.127.615c0 .228.039.428.117.601s.181.302.308.4.263.142.41.142v.903c-.189 0-.376-.049-.562-.147s-.353-.237-.503-.42-.273-.406-.361-.664a2.62 2.62 0 0 1-.137-.869c0-.384.065-.722.196-1.015a1.52 1.52 0 0 1 .59-.694c.261-.169.588-.254.982-.254h2.461c.176 0 .363-.014.561-.044s.37-.079.513-.141h.078v.942c-.104.046-.242.082-.415.108a3.35 3.35 0 0 1-.488.039zm-2.3-.157l.635-.009v.913c0 .257.021.486.063.688s.1.371.181.508.184.241.308.313a.82.82 0 0 0 .424.107c.166 0 .318-.038.454-.112s.246-.188.328-.337.117-.34.117-.562c0-.277-.059-.521-.176-.732s-.26-.379-.43-.503-.333-.195-.493-.205l.435-.386a1.32 1.32 0 0 1 .454.186 2.15 2.15 0 0 1 .478.405 2.17 2.17 0 0 1 .376.596 1.93 1.93 0 0 1 .147.771c0 .358-.07.672-.21.942s-.327.476-.562.625a1.48 1.48 0 0 1-.796.22c-.283 0-.532-.055-.747-.166s-.398-.27-.542-.478-.257-.459-.332-.752-.112-.62-.112-.982v-1.05zm-2.08-4.379h.693v2.856h-.693v-2.856zm-1.284 1.889v-.903h5.259c.179 0 .314-.028.405-.083s.151-.127.18-.215a.87.87 0 0 0 .044-.283c0-.075-.006-.153-.019-.235l-.039-.19.737-.005a2.16 2.16 0 0 1 .064.283c.022.114.034.253.034.415a1.41 1.41 0 0 1-.132.611c-.088.185-.234.333-.44.444s-.488.161-.839.161h-5.254zm6.665-5.141c0 .367-.062.701-.186 1.001a2.27 2.27 0 0 1-.532.766 2.36 2.36 0 0 1-.811.488c-.312.114-.654.171-1.025.171h-.205c-.43 0-.812-.063-1.147-.19s-.625-.3-.86-.518a2.21 2.21 0 0 1-.532-.742c-.121-.277-.181-.563-.181-.859 0-.378.065-.703.196-.977a1.78 1.78 0 0 1 .546-.679 2.35 2.35 0 0 1 .821-.39c.312-.085.654-.127 1.025-.127h.405v3.945h-.737v-3.042h-.068c-.235.013-.462.062-.684.147a1.23 1.23 0 0 0-.547.39c-.143.179-.215.424-.215.733 0 .205.044.394.132.566s.212.321.381.444.376.22.62.289a3.16 3.16 0 0 0 .845.102h.205c.251 0 .487-.034.708-.102a1.83 1.83 0 0 0 .576-.308c.166-.137.296-.301.391-.493s.141-.417.141-.664c0-.319-.065-.589-.195-.811s-.304-.415-.522-.581l.434-.547c.173.114.337.259.493.435a2.05 2.05 0 0 1 .381.649c.098.254.147.555.147.904zm-4.551-4.014h4.453v.903h-5.283v-.879l.83-.024zm-.859-1.65l.839.004c-.016.075-.026.147-.029.215l-.01.225c0 .208.033.392.098.552a1.15 1.15 0 0 0 .273.405c.118.111.258.198.42.264s.336.102.528.122l.146.254c-.319 0-.618-.031-.898-.093s-.528-.165-.742-.298a1.46 1.46 0 0 1-.508-.508c-.124-.208-.186-.456-.186-.742a1.16 1.16 0 0 1 .025-.225.63.63 0 0 1 .044-.175zm4.409-3.755h-2.72a1.1 1.1 0 0 0-.542.127c-.156.081-.277.205-.361.371a1.34 1.34 0 0 0-.127.615 1.44 1.44 0 0 0 .117.6c.078.17.181.303.308.401s.263.141.41.141v.904c-.189 0-.376-.049-.562-.147s-.353-.237-.503-.42-.273-.407-.361-.664a2.62 2.62 0 0 1-.137-.869c0-.384.065-.722.196-1.015a1.52 1.52 0 0 1 .59-.694c.261-.169.588-.254.982-.254h2.461c.176 0 .363-.014.561-.044s.37-.079.513-.141h.078v.942c-.104.046-.242.082-.415.108a3.35 3.35 0 0 1-.488.039zm-2.3-.157l.635-.009v.913c0 .257.021.486.063.688s.1.371.181.508.184.241.308.312a.81.81 0 0 0 .424.108c.166 0 .318-.038.454-.112s.246-.188.328-.337.117-.34.117-.562c0-.277-.059-.521-.176-.732s-.26-.379-.43-.503-.333-.196-.493-.205l.435-.386a1.32 1.32 0 0 1 .454.186 2.15 2.15 0 0 1 .478.405 2.17 2.17 0 0 1 .376.596 1.93 1.93 0 0 1 .147.771c0 .358-.07.672-.21.942s-.327.476-.562.625a1.48 1.48 0 0 1-.796.22c-.283 0-.532-.055-.747-.166s-.398-.27-.542-.478-.257-.459-.332-.752-.112-.62-.112-.982v-1.05zm-4.297-3.149h7.5v.908h-7.5v-.908zm3.267-4.829h4.233v.908h-5.283v-.859l1.05-.049zm1.391.185l-.014.42a3.6 3.6 0 0 1-1.001-.141 2.37 2.37 0 0 1-.806-.406c-.228-.179-.404-.402-.527-.668a2.14 2.14 0 0 1-.191-.928c0-.248.036-.475.108-.684s.177-.389.327-.542.342-.272.576-.356.518-.127.85-.127h3.52v.903h-3.476c-.277 0-.498.047-.665.142a.81.81 0 0 0-.361.39c-.078.17-.117.368-.117.596 0 .267.047.49.142.669a1.13 1.13 0 0 0 .39.43 1.78 1.78 0 0 0 .571.234c.212.046.437.068.674.068zm-.498-3.422l.186.605c-.29-.003-.568-.05-.835-.142a2.25 2.25 0 0 1-.713-.405 1.92 1.92 0 0 1-.493-.659c-.124-.26-.186-.558-.186-.894 0-.283.038-.533.113-.752s.19-.406.346-.556a1.45 1.45 0 0 1 .591-.347 2.8 2.8 0 0 1 .859-.117h3.472v.908h-3.481c-.297 0-.526.047-.689.142s-.281.221-.346.39a1.55 1.55 0 0 0-.103.596c0 .199.034.374.103.527a1.08 1.08 0 0 0 .283.386 1.23 1.23 0 0 0 .405.239 1.48 1.48 0 0 0 .488.079zm3.438-6.827a2.59 2.59 0 0 1-.186 1.001c-.127.297-.304.552-.532.767a2.36 2.36 0 0 1-.811.488c-.312.114-.654.171-1.025.171h-.205c-.43 0-.812-.063-1.147-.19s-.625-.3-.86-.518a2.21 2.21 0 0 1-.532-.742c-.121-.277-.181-.563-.181-.859 0-.378.065-.704.196-.977a1.78 1.78 0 0 1 .546-.679 2.35 2.35 0 0 1 .821-.39c.312-.085.654-.127 1.025-.127h.405v3.945h-.737v-3.042h-.068c-.235.013-.462.062-.684.147a1.23 1.23 0 0 0-.547.39c-.143.179-.215.423-.215.733a1.23 1.23 0 0 0 .132.566 1.21 1.21 0 0 0 .381.444c.169.124.376.22.62.288s.526.103.845.103h.205c.251 0 .487-.034.708-.103s.41-.174.576-.307.296-.301.391-.493.141-.417.141-.664c0-.319-.065-.59-.195-.811s-.304-.415-.522-.581l.434-.547c.173.114.337.259.493.435a2.04 2.04 0 0 1 .381.649c.098.254.147.555.147.903zm-4.253-4.013h4.155v.903h-5.283v-.854l1.128-.049zm1.313.215l-.014.376c-.362-.004-.695-.057-1.001-.162s-.578-.25-.806-.439-.404-.413-.527-.674a1.99 1.99 0 0 1-.191-.874c0-.26.036-.495.108-.703a1.27 1.27 0 0 1 .332-.532c.153-.15.351-.264.595-.342s.536-.117.884-.117h3.462v.908h-3.472c-.276 0-.498.041-.664.122a.75.75 0 0 0-.366.356c-.078.157-.117.349-.117.577a1.33 1.33 0 0 0 .142.615c.094.182.224.34.39.474a1.98 1.98 0 0 0 .571.307c.212.072.437.108.674.108zm1.621-8.072h-4.062v-.908h5.283v.864l-1.221.044zm-1.113-.171l-.01-.376c.352 0 .677.038.977.113a2.08 2.08 0 0 1 .771.351 1.66 1.66 0 0 1 .513.64c.121.264.181.584.181.962 0 .257-.038.493-.113.708a1.41 1.41 0 0 1-.346.547c-.156.153-.36.272-.611.356s-.551.122-.903.122h-3.408v-.903h3.418c.238 0 .434-.026.591-.078a.99.99 0 0 0 .366-.22c.088-.094.15-.199.185-.312a1.23 1.23 0 0 0 .054-.362c0-.384-.073-.688-.22-.913s-.349-.386-.6-.483a2.27 2.27 0 0 0-.845-.152z" class="C"/><path d="M227 277.88h-86v24h86v-24z" class="B D"/><path d="M178.303 290.855c.215 0 .413-.043.595-.131s.332-.209.45-.362a1 1 0 0 0 .2-.532h.859a1.61 1.61 0 0 1-.317.874c-.192.267-.444.484-.757.65s-.656.244-1.03.244a2.41 2.41 0 0 1-1.04-.21 2.07 2.07 0 0 1-.733-.576 2.58 2.58 0 0 1-.434-.84c-.095-.319-.142-.656-.142-1.011v-.205c0-.355.047-.69.142-1.006s.242-.601.434-.845a2.07 2.07 0 0 1 .733-.576 2.41 2.41 0 0 1 1.04-.21c.413 0 .774.085 1.084.254s.551.394.727.684a1.97 1.97 0 0 1 .293.976h-.859c-.016-.218-.078-.415-.186-.591a1.17 1.17 0 0 0-.429-.42c-.179-.107-.389-.161-.63-.161-.277 0-.51.056-.699.166a1.23 1.23 0 0 0-.444.44 2.07 2.07 0 0 0-.234.61c-.046.222-.069.448-.069.679v.205c0 .231.023.459.069.684s.122.428.229.61.259.329.445.439.423.161.703.161zm6.196-.756c0-.131-.029-.251-.088-.362s-.171-.216-.347-.307-.432-.176-.781-.244c-.293-.062-.558-.136-.796-.22a2.41 2.41 0 0 1-.6-.308c-.163-.12-.288-.262-.376-.425a1.18 1.18 0 0 1-.132-.571c0-.208.045-.405.137-.591s.226-.35.395-.493.379-.255.62-.337a2.52 2.52 0 0 1 .806-.122c.423 0 .784.075 1.084.225s.529.35.688.6a1.49 1.49 0 0 1 .24.826h-.904c0-.147-.044-.289-.132-.425s-.209-.256-.375-.347-.363-.137-.601-.137c-.251 0-.454.039-.61.118a.77.77 0 0 0-.337.288c-.069.117-.103.24-.103.371a.67.67 0 0 0 .049.263c.036.075.098.145.185.21s.212.121.372.176a5.71 5.71 0 0 0 .61.166c.433.098.789.215 1.069.352s.489.304.625.503.205.439.205.722c0 .231-.048.443-.146.635s-.233.358-.415.498-.394.244-.645.322a2.87 2.87 0 0 1-.835.113c-.465 0-.859-.083-1.181-.249s-.567-.381-.733-.645-.249-.542-.249-.835h.908c.013.248.085.444.215.591a1.1 1.1 0 0 0 .479.308c.189.058.376.087.561.087a1.71 1.71 0 0 0 .62-.097.86.86 0 0 0 .386-.269.62.62 0 0 0 .132-.39zm5.166 0c0-.131-.029-.251-.088-.362s-.171-.216-.347-.307-.432-.176-.781-.244c-.293-.062-.558-.136-.796-.22a2.41 2.41 0 0 1-.6-.308c-.163-.12-.288-.262-.376-.425a1.18 1.18 0 0 1-.132-.571c0-.208.045-.405.137-.591s.226-.35.395-.493.379-.255.62-.337a2.52 2.52 0 0 1 .806-.122c.423 0 .784.075 1.084.225s.529.35.688.6a1.49 1.49 0 0 1 .24.826h-.904c0-.147-.044-.289-.132-.425s-.209-.256-.375-.347-.363-.137-.601-.137c-.251 0-.454.039-.61.118a.77.77 0 0 0-.337.288c-.069.117-.103.24-.103.371a.67.67 0 0 0 .049.263.58.58 0 0 0 .186.21c.087.062.211.121.371.176a5.71 5.71 0 0 0 .61.166c.433.098.789.215 1.069.352s.489.304.625.503.205.439.205.722c0 .231-.048.443-.146.635s-.233.358-.415.498-.394.244-.645.322a2.87 2.87 0 0 1-.835.113c-.465 0-.859-.083-1.181-.249s-.567-.381-.733-.645-.249-.542-.249-.835h.908c.013.248.085.444.215.591s.29.246.479.308.376.087.561.087a1.71 1.71 0 0 0 .62-.097.86.86 0 0 0 .386-.269.62.62 0 0 0 .132-.39z" class="C"/><path d="M318 277.88h-86v24h86v-24z" class="B D"/><path d="M268.713 286.217h.908v5.913c0 .322-.052.596-.156.82a1.06 1.06 0 0 1-.459.508c-.202.117-.457.176-.767.176a1.83 1.83 0 0 1-.283-.025 1.88 1.88 0 0 1-.278-.058l.005-.728c.061.013.131.023.21.03l.205.014c.133 0 .245-.024.337-.073a.46.46 0 0 0 .205-.234 1.07 1.07 0 0 0 .073-.43v-5.913zm-.093-1.402c0-.146.046-.27.137-.371s.223-.151.395-.151.31.05.401.151.136.225.136.371c0 .14-.045.261-.136.362s-.225.146-.401.146-.304-.049-.395-.146-.137-.222-.137-.362zm5.537 5.284c0-.131-.029-.251-.088-.362s-.171-.216-.346-.307-.433-.176-.782-.244a6.27 6.27 0 0 1-.795-.22 2.4 2.4 0 0 1-.601-.308c-.163-.12-.288-.262-.376-.425a1.18 1.18 0 0 1-.132-.571 1.33 1.33 0 0 1 .137-.591c.094-.185.226-.35.395-.493s.38-.255.62-.337a2.52 2.52 0 0 1 .806-.122c.423 0 .785.075 1.084.225s.529.35.689.6a1.5 1.5 0 0 1 .239.826h-.903c0-.147-.044-.289-.132-.425s-.21-.256-.376-.347-.363-.137-.601-.137c-.251 0-.454.039-.61.118a.77.77 0 0 0-.337.288c-.069.117-.103.24-.103.371a.69.69 0 0 0 .049.263.58.58 0 0 0 .186.21 1.5 1.5 0 0 0 .371.176 5.71 5.71 0 0 0 .61.166c.433.098.79.215 1.069.352s.489.304.625.503.206.439.206.722c0 .231-.049.443-.147.635s-.233.358-.415.498-.394.244-.645.322-.525.113-.834.113c-.466 0-.86-.083-1.182-.249s-.567-.381-.733-.645-.249-.542-.249-.835h.909c.013.248.084.444.214.591s.29.246.479.308.376.087.562.087c.247 0 .454-.032.62-.097s.298-.155.385-.269a.62.62 0 0 0 .132-.39zm5.166 0c0-.131-.029-.251-.088-.362s-.171-.216-.346-.307-.433-.176-.782-.244a6.27 6.27 0 0 1-.795-.22 2.4 2.4 0 0 1-.601-.308c-.163-.12-.288-.262-.376-.425a1.18 1.18 0 0 1-.132-.571 1.33 1.33 0 0 1 .137-.591c.094-.185.226-.35.395-.493s.38-.255.62-.337a2.52 2.52 0 0 1 .806-.122c.423 0 .785.075 1.084.225s.529.35.689.6a1.5 1.5 0 0 1 .239.826h-.903c0-.147-.044-.289-.132-.425s-.21-.256-.376-.347-.363-.137-.601-.137c-.251 0-.454.039-.61.118a.77.77 0 0 0-.337.288c-.068.117-.103.24-.103.371a.69.69 0 0 0 .049.263.58.58 0 0 0 .186.21 1.5 1.5 0 0 0 .371.176 5.71 5.71 0 0 0 .61.166c.433.098.79.215 1.069.352s.489.304.625.503.206.439.206.722c0 .231-.049.443-.147.635s-.233.358-.415.498-.394.244-.644.322-.526.113-.835.113c-.466 0-.86-.083-1.182-.249s-.566-.381-.733-.645-.249-.542-.249-.835h.909c.013.248.084.444.215.591s.289.246.478.308.376.087.562.087c.247 0 .454-.032.62-.097s.298-.155.385-.269a.62.62 0 0 0 .132-.39z" class="C"/><path d="M389.5 99.75v230h34v-230h-34z" class="B G"/><g class="D"><path d="M404.559 237.852h-2.354c-.169 0-.314.027-.434.083a.62.62 0 0 0-.289.258.86.86 0 0 0-.102.445c0 .156.028.291.083.405s.128.202.229.264.214.092.347.092v1.407c-.225 0-.438-.052-.64-.157s-.379-.255-.532-.454-.278-.434-.366-.708-.132-.586-.132-.927c0-.411.069-.775.205-1.094s.342-.57.615-.752.616-.278 1.026-.278h2.261c.289 0 .527-.018.712-.054s.342-.088.479-.156h.083v1.42c-.143.069-.322.121-.537.157a4.5 4.5 0 0 1-.654.049zm-2.027-.186l.796-.01v.786c0 .186.021.347.064.484s.102.249.18.337.163.153.264.195.212.059.332.059.229-.028.327-.083.169-.135.225-.24a.81.81 0 0 0 .078-.366c0-.211-.042-.395-.127-.552s-.189-.276-.313-.361a.65.65 0 0 0-.351-.137l.596-.371c.133.052.271.124.415.215a1.94 1.94 0 0 1 .405.337c.124.137.226.301.307.493s.118.42.118.684a2.05 2.05 0 0 1-.201.913 1.65 1.65 0 0 1-.561.644c-.241.157-.514.235-.82.235a1.66 1.66 0 0 1-.738-.157 1.44 1.44 0 0 1-.542-.459c-.149-.205-.262-.46-.337-.766s-.117-.661-.117-1.065v-.815zm-1.05-3.721h6.299v1.407h-7.314v-1.304l1.015-.103zm1.568-3.344h.102c.384 0 .741.045 1.07.136s.615.218.859.391a1.84 1.84 0 0 1 .566.644c.134.254.201.547.201.879a1.71 1.71 0 0 1-.196.84 1.74 1.74 0 0 1-.547.601c-.237.159-.512.288-.825.386s-.648.172-1.006.224h-.268c-.384-.052-.736-.127-1.055-.224s-.6-.227-.835-.386a1.77 1.77 0 0 1-.552-.596c-.13-.238-.195-.516-.195-.835 0-.335.064-.63.191-.884s.309-.472.546-.644.521-.308.85-.396.693-.136 1.094-.136zm.102 1.411h-.102a3.06 3.06 0 0 0-.62.058 1.62 1.62 0 0 0-.503.176.85.85 0 0 0-.332.313c-.082.127-.122.281-.122.463 0 .193.031.357.092.494s.152.242.269.327.257.148.42.19a2.62 2.62 0 0 0 .552.078h.678a2.21 2.21 0 0 0 .65-.136.98.98 0 0 0 .449-.347c.111-.156.166-.361.166-.615 0-.186-.041-.342-.122-.469s-.2-.23-.347-.308-.315-.138-.508-.171a3.45 3.45 0 0 0-.62-.053zm-2.685-3.77h5.283v1.411h-5.283v-1.411zm-1.377 1.499a.66.66 0 0 1-.508-.215c-.133-.143-.2-.335-.2-.576s.067-.428.2-.571.303-.22.508-.22.374.073.508.22.2.334.2.571-.067.433-.2.576-.303.215-.508.215zm1.377-8.496v-1.274h5.107c.482 0 .891.107 1.226.322s.594.508.766.889.264.823.264 1.328a3.04 3.04 0 0 1-.088.703c-.058.244-.15.478-.273.703a1.87 1.87 0 0 1-.469.557l-.83-.62a1.75 1.75 0 0 0 .439-.567c.108-.215.162-.452.162-.713 0-.254-.048-.469-.142-.644a.94.94 0 0 0-.405-.406c-.176-.094-.389-.141-.64-.141h-3.896l-1.221-.137zm2.705 3.555h-.103c-.403 0-.77-.049-1.098-.147s-.617-.242-.855-.424a1.96 1.96 0 0 1-.552-.674c-.13-.264-.195-.562-.195-.894 0-.351.065-.646.195-.884a1.61 1.61 0 0 1 .557-.586c.238-.153.519-.271.845-.356s.675-.156 1.059-.205h.225a6.21 6.21 0 0 1 1.025.22 3.13 3.13 0 0 1 .83.385 1.7 1.7 0 0 1 .547.596c.131.234.196.514.196.84s-.067.62-.201.884-.32.483-.561.669-.524.328-.85.429-.68.147-1.064.147zm-.103-1.406h.103c.218 0 .421-.022.61-.064a1.67 1.67 0 0 0 .503-.195c.143-.091.256-.204.337-.337a.96.96 0 0 0 .117-.484c0-.257-.053-.467-.161-.629a1.02 1.02 0 0 0-.454-.367 1.96 1.96 0 0 0-.664-.141h-.64a2.12 2.12 0 0 0-.551.083c-.166.049-.308.117-.425.205a.89.89 0 0 0-.274.342c-.065.14-.097.306-.097.498 0 .185.042.346.127.483s.193.246.337.337.312.155.507.2.401.069.625.069zm1.49-7.369h-2.354c-.169 0-.314.028-.434.083s-.22.142-.289.259a.86.86 0 0 0-.102.445c0 .156.028.291.083.405a.58.58 0 0 0 .229.263c.098.062.214.093.347.093v1.406a1.38 1.38 0 0 1-.64-.156c-.201-.104-.379-.255-.532-.454s-.278-.434-.366-.708-.132-.586-.132-.928c0-.41.069-.774.205-1.093s.342-.57.615-.752.616-.279 1.026-.279h2.261a3.95 3.95 0 0 0 .712-.053c.183-.036.342-.088.479-.157h.083v1.421c-.143.069-.322.121-.537.157s-.436.048-.654.048zm-2.027-.185l.796-.01v.786c0 .186.021.347.064.484s.102.249.18.337.163.153.264.195.212.058.332.058.229-.027.327-.083a.59.59 0 0 0 .225-.239.81.81 0 0 0 .078-.366c0-.212-.042-.396-.127-.552s-.189-.276-.313-.361-.24-.134-.351-.137l.596-.371c.133.052.271.124.415.215a1.94 1.94 0 0 1 .405.337c.124.137.226.301.307.493s.118.42.118.684a2.05 2.05 0 0 1-.201.913 1.65 1.65 0 0 1-.561.644c-.241.156-.514.235-.82.235-.277 0-.523-.053-.738-.157a1.44 1.44 0 0 1-.542-.459c-.149-.205-.262-.46-.337-.766s-.117-.661-.117-1.065v-.815zm-2.065-4.902h.996v3.076h-.996v-3.076zm-1.304 2.314v-1.406h4.995a.84.84 0 0 0 .352-.059c.081-.042.138-.104.171-.185a.93.93 0 0 0 .044-.308l-.01-.234-.029-.181 1.035-.005c.039.12.07.251.092.391s.035.294.035.464c0 .309-.051.579-.152.81a1.11 1.11 0 0 1-.498.527c-.228.124-.527.186-.898.186h-5.137zm6.685-5.547a2.94 2.94 0 0 1-.196 1.104c-.133.325-.317.602-.551.83s-.507.397-.816.517a2.73 2.73 0 0 1-.996.181h-.195c-.401 0-.767-.057-1.099-.171s-.62-.277-.864-.488a2.16 2.16 0 0 1-.562-.782c-.133-.306-.2-.651-.2-1.035 0-.374.062-.706.186-.996s.299-.532.527-.727a2.27 2.27 0 0 1 .82-.45c.316-.1.668-.151 1.055-.151h.586v4.199h-.938v-2.817h-.107c-.195 0-.369.036-.522.107s-.28.173-.372.313-.136.319-.136.537c0 .186.04.345.122.478a.94.94 0 0 0 .342.328 1.86 1.86 0 0 0 .517.185 3.3 3.3 0 0 0 .645.059h.195a1.89 1.89 0 0 0 .586-.088c.179-.062.334-.148.464-.259s.231-.251.303-.41a1.37 1.37 0 0 0 .107-.552 1.72 1.72 0 0 0-.146-.708c-.101-.221-.253-.412-.455-.571l.743-.684a2.11 2.11 0 0 1 .459.454 2.43 2.43 0 0 1 .361.684c.091.267.137.571.137.913zm-1.465-4.477l-3.916-1.099v-.894l1.538.288 3.745 1.099v.747l-1.367-.141zm-3.916.556l3.911-.786 1.372-.073v.879l-5.283 1.338v-1.358zm3.847-3.555l-3.847-.766v-1.362l5.283 1.337v.874l-1.436-.083zm-3.847.884l3.887-1.093 1.396-.152v.752l-3.74 1.099-1.543.278v-.884zm4.092-6.572h-2.354c-.169 0-.314.028-.434.083a.62.62 0 0 0-.289.259c-.068.114-.102.262-.102.444 0 .156.028.291.083.405s.128.202.229.264.214.093.347.093v1.406a1.38 1.38 0 0 1-.64-.156c-.201-.104-.379-.256-.532-.454a2.26 2.26 0 0 1-.366-.708c-.088-.277-.132-.586-.132-.928 0-.41.069-.775.205-1.094a1.68 1.68 0 0 1 .615-.752c.274-.185.616-.278 1.026-.278h2.261c.289 0 .527-.018.712-.054s.342-.088.479-.156h.083v1.421c-.143.068-.322.12-.537.156s-.436.049-.654.049zm-2.027-.186l.796-.009v.786c0 .185.021.347.064.483s.102.249.18.337.163.153.264.195.212.059.332.059.229-.028.327-.083a.59.59 0 0 0 .225-.239.81.81 0 0 0 .078-.366c0-.212-.042-.396-.127-.552s-.189-.277-.313-.362-.24-.133-.351-.136l.596-.371a2.39 2.39 0 0 1 .415.215c.143.087.278.2.405.336a1.73 1.73 0 0 1 .307.494 1.79 1.79 0 0 1 .118.683c0 .335-.067.64-.201.913a1.66 1.66 0 0 1-.561.645c-.241.156-.514.234-.82.234-.277 0-.523-.052-.738-.156a1.44 1.44 0 0 1-.542-.459c-.149-.205-.262-.461-.337-.767s-.117-.66-.117-1.064v-.816zm2.622-3.803l-4.687-1.402v-1.508l6.079 2.124c.133.045.277.107.43.185s.297.178.434.308.254.288.342.483.132.428.132.708a1.71 1.71 0 0 1-.025.327l-.068.303h-1.03v-.112l.005-.113c0-.185-.022-.336-.064-.454s-.107-.211-.195-.283a.96.96 0 0 0-.332-.171l-1.021-.395zm-4.687.586l3.828-1.148 1.489-.2.103.957-5.42 1.899v-1.508z"/><path d="M640 99H488V329.5H640V99Z" class="B"/></g><path d="M566.844 111.475l1.172-4.258h1.469l-1.782 5.283h-.889l.03-1.025zm-.806-4.258l1.177 4.262.024 1.021h-.893l-1.783-5.283h1.475zm5.562 0v5.283h-1.412v-5.283h1.412zm-1.499-1.377c0-.205.071-.375.214-.508s.336-.2.577-.2.428.067.571.2a.66.66 0 0 1 .22.508.66.66 0 0 1-.22.508c-.143.133-.334.2-.571.2s-.433-.067-.577-.2-.214-.303-.214-.508zm4.067 2.529v4.131h-1.406v-5.283h1.323l.083 1.152zm1.592-1.186l-.025 1.303-.249-.024-.258-.015c-.199 0-.372.026-.518.078s-.264.122-.361.22a.96.96 0 0 0-.215.357c-.046.14-.072.299-.078.478l-.284-.088a4.07 4.07 0 0 1 .103-.942c.068-.29.168-.542.298-.757s.296-.381.488-.498.412-.176.659-.176c.078 0 .158.007.24.02a.82.82 0 0 1 .2.044zm3.496.034v.996h-3.076v-.996h3.076zm-2.315-1.304h1.407v4.995c0 .153.019.27.058.352s.104.138.186.171.184.044.307.044l.235-.01.18-.029.005 1.035c-.12.039-.25.07-.39.092s-.295.035-.464.035c-.309 0-.58-.051-.811-.152s-.403-.27-.527-.498-.186-.527-.186-.898v-5.137zm6.241 5.322v-4.018h1.406v5.283h-1.323l-.083-1.265zm.156-1.084l.415-.009c0 .351-.041.678-.122.981s-.204.56-.366.781-.368.389-.616.513-.538.181-.874.181c-.257 0-.494-.036-.713-.108s-.4-.19-.556-.346-.274-.363-.361-.611-.127-.552-.127-.903v-3.413h1.406v3.423c0 .156.018.288.054.395a.7.7 0 0 0 .161.264c.068.068.148.117.239.146s.198.044.312.044c.29 0 .518-.058.684-.176s.288-.276.356-.478.108-.433.108-.684zm5.176 1.158v-2.354c0-.169-.028-.314-.083-.434s-.142-.22-.259-.289-.262-.102-.444-.102c-.157 0-.292.028-.406.083a.58.58 0 0 0-.263.229c-.062.098-.093.214-.093.347h-1.406a1.38 1.38 0 0 1 .156-.64c.104-.201.255-.379.454-.532s.434-.278.708-.366.586-.132.928-.132c.41 0 .774.069 1.093.205s.57.342.752.615.279.616.279 1.026v2.261a3.95 3.95 0 0 0 .053.712c.036.183.088.342.157.479v.083h-1.421c-.069-.143-.121-.322-.157-.537s-.048-.436-.048-.654zm.185-2.027l.01.796h-.786c-.186 0-.347.021-.484.064a.89.89 0 0 0-.336.18c-.088.075-.153.163-.196.264s-.058.212-.058.332.027.229.083.327a.59.59 0 0 0 .239.225.81.81 0 0 0 .366.078c.212 0 .396-.042.552-.127s.277-.189.361-.313.134-.24.137-.351l.371.596c-.052.133-.124.271-.215.415a1.94 1.94 0 0 1-.337.405 1.71 1.71 0 0 1-.493.307c-.192.079-.42.118-.684.118a2.05 2.05 0 0 1-.913-.201 1.65 1.65 0 0 1-.644-.561c-.156-.241-.234-.514-.234-.82 0-.277.052-.523.156-.738a1.44 1.44 0 0 1 .459-.542c.205-.149.46-.262.766-.337s.661-.117 1.065-.117h.815zm3.799-4.282v7.5h-1.411V105h1.411zm5.059 3.311v4.189h-1.411v-5.283h1.323l.088 1.094zm-.196 1.362h-.39c0-.368.044-.707.132-1.016s.223-.582.395-.81a1.82 1.82 0 0 1 .649-.537c.258-.127.555-.191.894-.191.234 0 .449.036.645.108s.363.177.502.327.254.338.333.576.117.516.117.845v3.525h-1.407v-3.369c0-.241-.032-.427-.097-.557s-.158-.221-.279-.273a1.04 1.04 0 0 0-.424-.078.98.98 0 0 0-.479.112.96.96 0 0 0-.332.312 1.4 1.4 0 0 0-.195.459c-.043.176-.064.365-.064.567zm3.145-.161l-.503.063a3.48 3.48 0 0 1 .127-.962 2.43 2.43 0 0 1 .386-.781 1.76 1.76 0 0 1 .639-.522 1.94 1.94 0 0 1 .879-.191c.254 0 .485.038.694.112s.385.188.532.347.263.361.342.615.122.565.122.933v3.374h-1.412v-3.374c0-.244-.032-.43-.097-.557s-.153-.219-.274-.268a1.03 1.03 0 0 0-.42-.078c-.169 0-.317.034-.444.102a.87.87 0 0 0-.317.274 1.26 1.26 0 0 0-.191.41c-.042.153-.063.32-.063.503zm7.158 1.797v-2.354c0-.169-.028-.314-.083-.434a.62.62 0 0 0-.259-.289c-.114-.068-.262-.102-.444-.102-.156 0-.291.028-.405.083s-.202.128-.264.229-.093.214-.093.347h-1.406a1.38 1.38 0 0 1 .156-.64c.104-.201.256-.379.454-.532a2.26 2.26 0 0 1 .708-.366c.277-.088.586-.132.928-.132.41 0 .775.069 1.094.205a1.68 1.68 0 0 1 .752.615c.185.274.278.616.278 1.026v2.261c0 .289.018.527.054.712s.088.342.156.479v.083h-1.421c-.068-.143-.12-.322-.156-.537s-.049-.436-.049-.654zm.186-2.027l.009.796h-.786a1.62 1.62 0 0 0-.483.064c-.137.042-.249.102-.337.18s-.153.163-.195.264-.059.212-.059.332.028.229.083.327a.59.59 0 0 0 .239.225c.104.052.227.078.367.078.211 0 .395-.042.551-.127a1.01 1.01 0 0 0 .362-.313c.087-.123.133-.24.136-.351l.371.596c-.052.133-.123.271-.214.415a1.97 1.97 0 0 1-.337.405c-.137.124-.301.226-.494.307s-.419.118-.683.118c-.335 0-.64-.067-.913-.201a1.66 1.66 0 0 1-.645-.561c-.156-.241-.234-.514-.234-.82 0-.277.052-.523.156-.738a1.44 1.44 0 0 1 .459-.542c.205-.149.461-.262.767-.337s.661-.117 1.064-.117h.816zm4.497 2.217a1.04 1.04 0 0 0 .459-.098.77.77 0 0 0 .312-.283c.078-.124.119-.268.122-.434h1.323a1.76 1.76 0 0 1-.297.991 2.06 2.06 0 0 1-.787.679c-.328.162-.696.244-1.103.244s-.768-.069-1.074-.205a2.1 2.1 0 0 1-.757-.567c-.202-.244-.353-.527-.454-.849a3.51 3.51 0 0 1-.152-1.045v-.142c0-.374.051-.723.152-1.045s.252-.609.454-.849c.202-.245.454-.435.757-.572s.657-.205 1.064-.205c.433 0 .812.083 1.138.249a1.85 1.85 0 0 1 .771.713c.189.306.285.669.288 1.089h-1.323c-.003-.176-.04-.335-.112-.479a.8.8 0 0 0-.303-.341c-.13-.088-.291-.132-.483-.132-.205 0-.373.044-.503.132a.84.84 0 0 0-.303.351c-.071.147-.122.314-.151.503a4.23 4.23 0 0 0-.039.586v.142a4.31 4.31 0 0 0 .039.59c.026.189.075.357.146.503s.178.262.308.347.299.127.508.127zm4.404-6.499v7.5h-1.406V105h1.406zm-.2 4.673h-.386c.003-.368.052-.707.147-1.016s.229-.582.405-.81.386-.41.63-.537a1.77 1.77 0 0 1 .82-.191c.26 0 .496.038.708.112a1.32 1.32 0 0 1 .552.352c.156.16.276.369.361.63s.127.576.127.947v3.34h-1.416v-3.35c0-.234-.034-.418-.103-.551a.56.56 0 0 0-.288-.288c-.123-.059-.276-.088-.459-.088-.201 0-.374.037-.517.112s-.252.179-.337.312a1.39 1.39 0 0 0-.186.459 2.62 2.62 0 0 0-.058.567zm5.918-2.456v5.283h-1.411v-5.283h1.411zm-1.499-1.377a.66.66 0 0 1 .215-.508c.143-.133.335-.2.576-.2s.428.067.571.2.22.303.22.508-.073.374-.22.508-.334.2-.571.2-.433-.067-.576-.2-.215-.303-.215-.508zm4.038 2.505v4.155h-1.406v-5.283h1.318l.088 1.128zm-.205 1.328h-.381c0-.391.05-.742.151-1.055s.243-.584.425-.806a1.83 1.83 0 0 1 .649-.512c.254-.121.538-.181.85-.181a2.04 2.04 0 0 1 .679.108 1.29 1.29 0 0 1 .527.341c.15.157.264.363.342.62s.122.572.122.943v3.369h-1.416v-3.374c0-.234-.033-.417-.098-.547s-.161-.221-.288-.273-.276-.083-.459-.083c-.189 0-.353.037-.493.112a.98.98 0 0 0-.342.312 1.5 1.5 0 0 0-.2.459c-.045.176-.068.365-.068.567zm6.865 2.925a2.94 2.94 0 0 1-1.104-.196c-.325-.133-.602-.317-.83-.551s-.397-.507-.517-.816a2.73 2.73 0 0 1-.181-.996v-.195c0-.401.057-.767.171-1.099s.277-.62.488-.864a2.16 2.16 0 0 1 .782-.562c.306-.133.651-.2 1.035-.2.374 0 .706.062.996.186s.532.299.727.527a2.27 2.27 0 0 1 .45.82c.1.316.151.668.151 1.055v.586h-4.199v-.938h2.817v-.107c0-.195-.036-.369-.107-.522s-.173-.28-.313-.372-.319-.136-.537-.136c-.185 0-.345.04-.478.122a.94.94 0 0 0-.328.342 1.86 1.86 0 0 0-.185.517 3.3 3.3 0 0 0-.059.645v.195a1.89 1.89 0 0 0 .088.586c.062.179.148.334.259.464s.251.231.41.303a1.37 1.37 0 0 0 .552.107 1.72 1.72 0 0 0 .708-.146c.221-.101.412-.253.571-.455l.684.743a2.11 2.11 0 0 1-.454.459 2.43 2.43 0 0 1-.684.361c-.267.091-.571.137-.913.137z" class="C"/><path d="M440 99.5v86h34v-86h-34z" class="B G"/><g class="D"><path d="M455.54 154.597a.45.45 0 0 0-.273.088c-.082.058-.157.167-.225.327a3.13 3.13 0 0 0-.195.678 5.38 5.38 0 0 1-.22.748 2.59 2.59 0 0 1-.327.595c-.127.166-.277.296-.449.391s-.376.141-.601.141-.43-.047-.625-.141-.368-.236-.518-.415a1.98 1.98 0 0 1-.356-.664 2.8 2.8 0 0 1-.132-.889c0-.459.073-.853.22-1.182s.348-.586.605-.761.544-.269.869-.269v1.406a.76.76 0 0 0-.366.088.59.59 0 0 0-.259.264c-.065.117-.097.27-.097.459a.91.91 0 0 0 .083.405c.052.114.124.202.215.264a.52.52 0 0 0 .293.088.49.49 0 0 0 .219-.049c.062-.036.119-.093.171-.171s.101-.179.147-.303.081-.283.117-.468c.078-.381.181-.721.308-1.021s.293-.537.507-.713.49-.264.835-.264a1.35 1.35 0 0 1 .645.157c.195.104.366.254.513.449s.255.43.336.703.118.575.118.913c0 .492-.088.908-.264 1.25s-.399.596-.669.772-.553.258-.84.258v-1.333c.192-.006.347-.055.464-.146a.8.8 0 0 0 .254-.356 1.41 1.41 0 0 0 .078-.474c0-.182-.024-.334-.073-.454a.65.65 0 0 0-.205-.274c-.088-.065-.189-.097-.303-.097zm-3.823-4.868h.996v3.076h-.996v-3.076zm-1.304 2.314v-1.406h4.995a.84.84 0 0 0 .352-.059c.081-.042.138-.104.171-.185a.93.93 0 0 0 .044-.308l-.01-.234-.029-.181 1.035-.005c.039.12.07.251.092.391s.035.294.035.464c0 .309-.051.579-.152.81a1.11 1.11 0 0 1-.498.527c-.228.124-.527.186-.898.186h-5.137zm2.456-4.522H457v1.407h-5.283v-1.324l1.152-.083zm-1.186-1.591l1.303.024-.024.249-.015.259c0 .198.026.371.078.517a.92.92 0 0 0 .22.362.97.97 0 0 0 .357.215 1.79 1.79 0 0 0 .478.078l-.088.283c-.342 0-.656-.034-.942-.103a2.6 2.6 0 0 1-.757-.297c-.215-.134-.381-.297-.498-.489a1.24 1.24 0 0 1-.176-.659 1.51 1.51 0 0 1 .02-.239.82.82 0 0 1 .044-.2zm5.415-2.998a2.93 2.93 0 0 1-.196 1.103c-.133.326-.317.602-.551.83s-.507.397-.816.518a2.75 2.75 0 0 1-.996.18h-.195c-.401 0-.767-.056-1.099-.17s-.62-.277-.864-.489-.431-.475-.562-.781-.2-.651-.2-1.035c0-.374.062-.706.186-.996s.299-.532.527-.728.501-.348.82-.449.668-.151 1.055-.151h.586v4.199h-.938v-2.817h-.107c-.195 0-.369.035-.522.107a.83.83 0 0 0-.372.312c-.091.14-.136.319-.136.538 0 .185.04.345.122.478s.195.243.342.327a1.86 1.86 0 0 0 .517.186c.196.039.41.058.645.058h.195a1.86 1.86 0 0 0 .586-.088 1.42 1.42 0 0 0 .464-.258c.13-.114.231-.251.303-.41a1.37 1.37 0 0 0 .107-.552 1.72 1.72 0 0 0-.146-.708c-.101-.222-.253-.412-.455-.572l.743-.683a2.11 2.11 0 0 1 .459.454 2.43 2.43 0 0 1 .361.684c.091.266.137.571.137.913zm-1.289-5.821h-2.354c-.169 0-.314.028-.434.083s-.22.142-.289.259-.102.262-.102.444c0 .157.028.292.083.406a.58.58 0 0 0 .229.263c.098.062.214.093.347.093v1.406a1.38 1.38 0 0 1-.64-.156c-.201-.104-.379-.255-.532-.454s-.278-.434-.366-.708-.132-.586-.132-.928c0-.41.069-.774.205-1.093s.342-.57.615-.752.616-.279 1.026-.279h2.261a3.95 3.95 0 0 0 .712-.053c.183-.036.342-.088.479-.157H457v1.421c-.143.069-.322.121-.537.156s-.436.049-.654.049zm-2.027-.185l.796-.01v.786c0 .186.021.347.064.484a.89.89 0 0 0 .18.336c.075.088.163.153.264.196s.212.058.332.058.229-.027.327-.083a.59.59 0 0 0 .225-.239.81.81 0 0 0 .078-.366c0-.212-.042-.396-.127-.552s-.189-.277-.313-.361-.24-.134-.351-.137l.596-.371c.133.052.271.124.415.215a1.94 1.94 0 0 1 .405.337 1.71 1.71 0 0 1 .307.493c.079.192.118.42.118.684a2.05 2.05 0 0 1-.201.913 1.65 1.65 0 0 1-.561.644c-.241.156-.514.235-.82.235-.277 0-.523-.053-.738-.157a1.44 1.44 0 0 1-.542-.459c-.149-.205-.262-.46-.337-.766s-.117-.661-.117-1.065v-.815zm-.971-3.721H457v1.411h-5.283v-1.323l1.094-.088zm1.362.195v.391c-.368 0-.707-.044-1.016-.132s-.582-.223-.81-.395-.41-.393-.537-.65-.191-.555-.191-.893a1.85 1.85 0 0 1 .108-.645c.068-.195.177-.363.327-.503s.338-.254.576-.332.516-.117.845-.117H457v1.406h-3.369c-.241 0-.427.033-.557.098s-.221.158-.273.278-.078.259-.078.425c0 .182.037.342.112.479a.96.96 0 0 0 .312.332c.131.087.284.153.459.195a2.44 2.44 0 0 0 .567.063zm-.161-3.144l.063.503a3.52 3.52 0 0 1-.962-.127 2.45 2.45 0 0 1-.781-.386 1.76 1.76 0 0 1-.522-.64c-.127-.253-.191-.546-.191-.878 0-.254.038-.485.112-.694a1.28 1.28 0 0 1 .347-.532 1.51 1.51 0 0 1 .615-.342c.254-.081.565-.122.933-.122H457v1.411h-3.374c-.244 0-.43.033-.557.098s-.219.153-.268.273-.078.257-.078.42c0 .17.034.318.102.445a.88.88 0 0 0 .274.317c.117.085.254.148.41.19a1.85 1.85 0 0 0 .503.064z"/><path d="M663 172c0-3.31 19.03-6 42.5-6 11.27 0 22.08.63 30.05 1.76 7.97 1.12 12.45 2.65 12.45 4.24v38.26c0 3.31-19.03 6-42.5 6s-42.5-2.69-42.5-6V172z" class="B E"/></g><path d="M748 172c0 3.31-19.03 6-42.5 6s-42.5-2.69-42.5-6" class="B E"/><path d="M688.519 196.475V190h.908v7.5h-.83l-.078-1.025zm-3.555-1.558v-.103c0-.403.049-.769.146-1.098s.243-.617.425-.855.405-.42.659-.547a1.88 1.88 0 0 1 .86-.195c.332 0 .621.059.869.176a1.67 1.67 0 0 1 .635.503c.175.218.314.482.415.791s.171.659.21 1.05v.449c-.036.387-.106.736-.21 1.045s-.24.573-.415.791a1.74 1.74 0 0 1-.635.503c-.251.114-.544.171-.879.171-.309 0-.593-.067-.85-.201a2 2 0 0 1-.659-.561c-.182-.241-.324-.524-.425-.85a3.76 3.76 0 0 1-.146-1.069zm.908-.103v.103a3.37 3.37 0 0 0 .078.742c.056.231.14.435.254.611a1.27 1.27 0 0 0 .435.415 1.28 1.28 0 0 0 .63.146c.299 0 .545-.063.737-.19s.351-.295.469-.503.208-.435.273-.679v-1.177a2.59 2.59 0 0 0-.171-.517 1.59 1.59 0 0 0-.283-.45 1.23 1.23 0 0 0-.425-.317c-.166-.078-.363-.117-.591-.117a1.25 1.25 0 0 0-.639.156c-.176.101-.321.241-.435.42a1.96 1.96 0 0 0-.254.615c-.052.231-.078.479-.078.742zm8.076 1.783v-2.72a1.1 1.1 0 0 0-.127-.542c-.081-.156-.205-.277-.371-.361a1.34 1.34 0 0 0-.615-.127c-.228 0-.428.039-.601.117s-.302.181-.4.307a.68.68 0 0 0-.142.411h-.903c0-.189.049-.376.147-.562s.237-.353.419-.503a2.1 2.1 0 0 1 .665-.361 2.62 2.62 0 0 1 .869-.137 2.48 2.48 0 0 1 1.015.195c.297.131.528.328.694.591s.254.588.254.982v2.461c0 .175.014.363.044.561s.079.37.141.513v.078h-.942c-.046-.104-.082-.243-.108-.415a3.36 3.36 0 0 1-.039-.488zm.156-2.3l.01.635h-.913c-.257 0-.486.021-.688.063a1.56 1.56 0 0 0-.508.181c-.137.081-.241.184-.313.307s-.107.262-.107.425.037.318.112.454.187.246.337.327.34.118.562.118c.276 0 .521-.059.732-.176s.379-.261.503-.43.195-.333.205-.493l.386.435a1.32 1.32 0 0 1-.186.454c-.101.166-.236.325-.405.478s-.365.275-.596.376-.485.147-.771.147c-.358 0-.672-.07-.943-.21-.266-.14-.475-.327-.625-.562a1.49 1.49 0 0 1-.219-.796c0-.283.055-.532.166-.747s.27-.399.478-.542.459-.257.752-.332.62-.112.982-.112h1.049zm4.38-2.08v.693h-2.856v-.693h2.856zm-1.889-1.284h.903v5.258c0 .179.028.315.083.406s.127.151.215.18a.87.87 0 0 0 .283.044c.075 0 .153-.006.234-.019l.191-.039.005.737c-.072.023-.166.044-.283.063s-.253.035-.415.035a1.41 1.41 0 0 1-.611-.132c-.185-.088-.333-.235-.444-.44s-.161-.488-.161-.839v-5.254zm6.064 5.664v-2.72a1.1 1.1 0 0 0-.127-.542c-.081-.156-.205-.277-.371-.361a1.34 1.34 0 0 0-.615-.127c-.228 0-.428.039-.601.117s-.302.181-.4.307a.68.68 0 0 0-.142.411h-.903c0-.189.049-.376.146-.562a1.66 1.66 0 0 1 .42-.503c.186-.153.407-.273.664-.361a2.63 2.63 0 0 1 .87-.137 2.48 2.48 0 0 1 1.015.195c.296.131.528.328.694.591s.253.588.253.982v2.461c0 .175.015.363.044.561a2.2 2.2 0 0 0 .142.513v.078h-.942c-.046-.104-.082-.243-.108-.415a3.36 3.36 0 0 1-.039-.488zm.156-2.3l.01.635h-.913c-.257 0-.487.021-.688.063a1.56 1.56 0 0 0-.508.181c-.137.081-.241.184-.313.307s-.107.262-.107.425.037.318.112.454.187.246.337.327.34.118.562.118a1.49 1.49 0 0 0 .732-.176c.212-.117.379-.261.503-.43s.195-.333.205-.493l.386.435a1.32 1.32 0 0 1-.186.454c-.101.166-.236.325-.405.478s-.365.275-.596.376-.485.147-.771.147c-.358 0-.672-.07-.943-.21a1.61 1.61 0 0 1-.625-.562 1.49 1.49 0 0 1-.219-.796c0-.283.055-.532.166-.747s.27-.399.478-.542.459-.257.752-.332.62-.112.982-.112h1.049zm2.164-4.297h.908v6.475l-.078 1.025h-.83V190zm4.477 4.814v.103a3.99 3.99 0 0 1-.137 1.069 2.62 2.62 0 0 1-.4.85 1.86 1.86 0 0 1-.645.561c-.253.134-.545.201-.874.201-.335 0-.629-.057-.883-.171a1.73 1.73 0 0 1-.635-.503c-.173-.218-.311-.482-.415-.791s-.171-.658-.21-1.045v-.449c.039-.391.109-.741.21-1.05s.242-.573.415-.791a1.66 1.66 0 0 1 .635-.503c.25-.117.542-.176.874-.176s.626.065.883.195.472.31.645.547a2.56 2.56 0 0 1 .4.855c.091.329.137.695.137 1.098zm-.908.103v-.103c0-.263-.025-.511-.073-.742s-.127-.439-.235-.615-.249-.319-.425-.42-.392-.156-.649-.156c-.228 0-.426.039-.596.117s-.307.184-.424.317-.214.28-.289.45a2.63 2.63 0 0 0-.161.517v1.177c.052.228.137.448.254.659s.28.379.479.513.451.2.747.2c.244 0 .452-.049.625-.146a1.19 1.19 0 0 0 .425-.415c.11-.176.192-.38.244-.611a3.37 3.37 0 0 0 .078-.742zm5.166 1.68v-2.72a1.1 1.1 0 0 0-.127-.542c-.081-.156-.205-.277-.371-.361a1.34 1.34 0 0 0-.615-.127c-.228 0-.428.039-.601.117s-.303.181-.4.307a.67.67 0 0 0-.142.411h-.903c0-.189.049-.376.146-.562a1.66 1.66 0 0 1 .42-.503c.186-.153.407-.273.664-.361s.55-.137.869-.137c.384 0 .723.065 1.016.195a1.53 1.53 0 0 1 .693.591c.17.261.254.588.254.982v2.461c0 .175.015.363.044.561a2.2 2.2 0 0 0 .142.513v.078h-.943c-.045-.104-.081-.243-.107-.415a3.36 3.36 0 0 1-.039-.488zm.156-2.3l.01.635h-.913c-.257 0-.487.021-.689.063s-.371.099-.507.181-.241.184-.313.307-.107.262-.107.425.037.318.112.454.187.246.337.327.34.118.561.118a1.49 1.49 0 0 0 .733-.176c.211-.117.379-.261.503-.43s.195-.333.205-.493l.386.435a1.32 1.32 0 0 1-.186.454c-.101.166-.236.325-.405.478s-.365.275-.596.376-.485.147-.772.147c-.358 0-.672-.07-.942-.21a1.61 1.61 0 0 1-.625-.562 1.49 1.49 0 0 1-.22-.796c0-.283.056-.532.166-.747a1.45 1.45 0 0 1 .479-.542c.208-.146.459-.257.752-.332a3.96 3.96 0 0 1 .981-.112h1.05zm5.244 1.802c0-.131-.029-.251-.088-.362s-.171-.216-.346-.307-.433-.176-.782-.244a6.27 6.27 0 0 1-.795-.22 2.4 2.4 0 0 1-.601-.308c-.163-.12-.288-.262-.376-.425a1.18 1.18 0 0 1-.132-.571 1.33 1.33 0 0 1 .137-.591c.094-.185.226-.35.395-.493s.38-.255.62-.337a2.52 2.52 0 0 1 .806-.122c.423 0 .785.075 1.084.225s.529.35.689.6a1.5 1.5 0 0 1 .239.826h-.903c0-.147-.044-.289-.132-.425s-.21-.256-.376-.347-.363-.137-.601-.137c-.251 0-.454.039-.61.118a.77.77 0 0 0-.337.288c-.068.117-.103.24-.103.371a.69.69 0 0 0 .049.263.58.58 0 0 0 .186.21 1.5 1.5 0 0 0 .371.176 5.71 5.71 0 0 0 .61.166c.433.098.79.215 1.07.352s.488.304.624.503.206.439.206.722c0 .231-.049.443-.147.635s-.233.358-.415.498-.394.244-.644.322-.526.113-.835.113c-.466 0-.86-.083-1.182-.249s-.566-.381-.733-.645-.249-.542-.249-.835h.909c.013.248.084.444.215.591s.289.246.478.308.376.087.562.087c.247 0 .454-.032.62-.097s.298-.155.385-.269a.62.62 0 0 0 .132-.39zm4.282 1.499a2.59 2.59 0 0 1-1-.186c-.297-.127-.552-.304-.767-.532a2.36 2.36 0 0 1-.488-.811c-.114-.312-.171-.654-.171-1.025v-.205c0-.43.063-.812.19-1.148a2.57 2.57 0 0 1 .518-.859 2.21 2.21 0 0 1 .742-.532c.277-.121.563-.181.859-.181.378 0 .703.065.977.195a1.79 1.79 0 0 1 .679.547 2.34 2.34 0 0 1 .39.821c.085.312.127.654.127 1.025v.405h-3.945v-.737h3.042v-.068a2.24 2.24 0 0 0-.147-.684c-.081-.221-.211-.404-.39-.547s-.423-.215-.733-.215c-.205 0-.394.044-.566.132s-.321.212-.444.381-.22.376-.289.62a3.16 3.16 0 0 0-.102.845v.205c0 .251.034.487.102.708a1.83 1.83 0 0 0 .308.576c.137.166.301.296.493.391s.417.141.664.141c.319 0 .59-.065.811-.195s.415-.304.581-.522l.547.434c-.114.173-.259.337-.435.493a2.05 2.05 0 0 1-.649.381c-.254.098-.555.147-.904.147z" class="C"/><g class="B E"><path d="M663 242c0-3.31 19.03-6 42.5-6 11.27 0 22.08.63 30.05 1.76 7.97 1.12 12.45 2.65 12.45 4.24v36.38c0 3.31-19.03 6-42.5 6s-42.5-2.69-42.5-6V242z" class="D"/><path d="M748 242c0 3.31-19.03 6-42.5 6s-42.5-2.69-42.5-6"/></g><path d="M694.803 265.855c.215 0 .413-.043.595-.131s.332-.209.45-.362a1 1 0 0 0 .2-.532h.859a1.61 1.61 0 0 1-.317.874c-.192.267-.444.484-.757.65s-.656.244-1.03.244a2.41 2.41 0 0 1-1.04-.21 2.07 2.07 0 0 1-.733-.576 2.58 2.58 0 0 1-.434-.84c-.095-.319-.142-.656-.142-1.011v-.205c0-.355.047-.69.142-1.006s.242-.601.434-.845a2.07 2.07 0 0 1 .733-.576 2.41 2.41 0 0 1 1.04-.21c.413 0 .774.085 1.084.254s.551.394.727.684a1.97 1.97 0 0 1 .293.976h-.859c-.016-.218-.078-.415-.186-.591a1.17 1.17 0 0 0-.429-.42c-.179-.107-.389-.161-.63-.161-.277 0-.51.056-.699.166a1.23 1.23 0 0 0-.444.44 2.07 2.07 0 0 0-.234.61c-.046.222-.069.448-.069.679v.205c0 .231.023.459.069.684s.122.428.229.61.259.329.445.439.423.161.703.161zm6.235-.258v-2.72a1.1 1.1 0 0 0-.127-.542c-.081-.156-.205-.277-.371-.361a1.34 1.34 0 0 0-.615-.127c-.228 0-.428.039-.601.117s-.303.181-.4.307a.67.67 0 0 0-.142.411h-.903c0-.189.049-.376.146-.562a1.66 1.66 0 0 1 .42-.503c.186-.153.407-.273.664-.361a2.63 2.63 0 0 1 .87-.137 2.48 2.48 0 0 1 1.015.195 1.54 1.54 0 0 1 .694.591c.169.261.253.588.253.982v2.461c0 .175.015.363.044.561a2.2 2.2 0 0 0 .142.513v.078h-.942c-.046-.104-.082-.243-.108-.415a3.36 3.36 0 0 1-.039-.488zm.156-2.3l.01.635h-.913c-.257 0-.487.021-.688.063s-.372.099-.508.181-.241.184-.313.307-.107.262-.107.425.037.318.112.454.187.246.337.327.34.118.562.118a1.49 1.49 0 0 0 .732-.176c.212-.117.379-.261.503-.43s.195-.333.205-.493l.386.435a1.32 1.32 0 0 1-.186.454c-.101.166-.236.325-.405.478s-.365.275-.596.376-.485.147-.771.147c-.358 0-.672-.07-.943-.21a1.61 1.61 0 0 1-.625-.562 1.49 1.49 0 0 1-.219-.796c0-.283.055-.532.166-.747s.27-.399.478-.542.459-.257.752-.332.62-.112.982-.112h1.049zm4.283 2.558a1.35 1.35 0 0 0 .595-.131 1.22 1.22 0 0 0 .449-.362c.118-.156.184-.333.201-.532h.859a1.61 1.61 0 0 1-.317.874c-.192.267-.445.484-.757.65s-.656.244-1.03.244c-.398 0-.744-.07-1.04-.21a2.06 2.06 0 0 1-.733-.576 2.58 2.58 0 0 1-.434-.84c-.095-.319-.142-.656-.142-1.011v-.205c0-.355.047-.69.142-1.006s.242-.601.434-.845a2.06 2.06 0 0 1 .733-.576c.296-.14.642-.21 1.04-.21.413 0 .774.085 1.084.254s.551.394.727.684a1.97 1.97 0 0 1 .293.976h-.859c-.017-.218-.078-.415-.186-.591s-.247-.315-.43-.42-.389-.161-.629-.161c-.277 0-.51.056-.699.166a1.23 1.23 0 0 0-.444.44 2.04 2.04 0 0 0-.234.61c-.046.222-.069.448-.069.679v.205c0 .231.023.459.069.684s.122.428.229.61a1.28 1.28 0 0 0 .444.439c.189.108.424.161.704.161zM709.5 259v7.5h-.903V259h.903zm-.215 4.658l-.376-.014c.003-.362.057-.695.161-1.001s.251-.578.44-.806.413-.404.674-.527.555-.191.874-.191c.26 0 .494.036.703.108s.385.179.532.332.264.351.342.595.117.536.117.884v3.462h-.908v-3.472c0-.276-.041-.498-.122-.664s-.201-.291-.357-.366a1.28 1.28 0 0 0-.576-.117c-.225 0-.43.047-.615.141a1.49 1.49 0 0 0-.474.391c-.13.166-.233.357-.307.571s-.108.437-.108.674zm7.012 2.94a2.59 2.59 0 0 1-1.001-.186c-.296-.127-.552-.304-.767-.532s-.374-.498-.488-.811-.171-.654-.171-1.025v-.205c0-.43.064-.812.191-1.148s.299-.625.517-.859a2.22 2.22 0 0 1 .742-.532c.277-.121.563-.181.86-.181.377 0 .703.065.976.195a1.79 1.79 0 0 1 .679.547c.176.231.306.505.391.821s.127.654.127 1.025v.405h-3.946v-.737h3.042v-.068c-.013-.235-.062-.463-.146-.684s-.212-.404-.391-.547-.423-.215-.732-.215c-.205 0-.394.044-.567.132s-.32.212-.444.381-.22.376-.288.62-.103.526-.103.845v.205c0 .251.034.487.103.708s.174.41.307.576a1.49 1.49 0 0 0 .494.391 1.51 1.51 0 0 0 .664.141c.319 0 .589-.065.81-.195s.415-.304.581-.522l.547.434a2.53 2.53 0 0 1-.434.493c-.176.157-.393.284-.65.381s-.555.147-.903.147z" class="C"/><path d="M565 281.75c24.853 0 45-10.633 45-23.75s-20.147-23.75-45-23.75-45 10.633-45 23.75 20.147 23.75 45 23.75z" class="B D"/><path d="M549.026 258.562l1.358-4.345h.595l-.117.864-1.382 4.419h-.581l.127-.938zm-.913-4.345l1.158 4.394.083.889h-.611l-1.533-5.283h.903zm4.165 4.36l1.104-4.36h.898l-1.533 5.283h-.605l.136-.923zm-1.167-4.36l1.328 4.272.152 1.011h-.576l-1.421-4.429-.117-.854h.634zm6.289 5.381c-.367 0-.701-.062-1.001-.186a2.27 2.27 0 0 1-.766-.532c-.212-.228-.375-.498-.488-.811s-.171-.654-.171-1.025v-.205c0-.43.063-.812.19-1.148a2.57 2.57 0 0 1 .518-.859 2.21 2.21 0 0 1 .742-.532c.277-.121.563-.181.859-.181.378 0 .703.065.977.195a1.79 1.79 0 0 1 .678.547c.176.231.306.505.391.821s.127.654.127 1.025v.405h-3.945v-.737h3.042v-.068a2.24 2.24 0 0 0-.147-.684c-.081-.221-.211-.404-.39-.547s-.424-.215-.733-.215c-.205 0-.394.044-.566.132s-.321.212-.445.381-.219.376-.288.62a3.16 3.16 0 0 0-.102.845v.205c0 .251.034.487.102.708a1.83 1.83 0 0 0 .308.576c.137.166.301.296.493.391s.417.141.664.141c.319 0 .589-.065.811-.195s.415-.304.581-.522l.547.434c-.114.173-.259.337-.435.493a2.05 2.05 0 0 1-.649.381c-.254.098-.555.147-.904.147zm3.106-7.598h.908v6.475l-.078 1.025h-.83V252zm4.477 4.814v.103a3.99 3.99 0 0 1-.136 1.069 2.62 2.62 0 0 1-.401.85 1.85 1.85 0 0 1-.644.561c-.254.134-.545.201-.874.201-.336 0-.63-.057-.884-.171a1.74 1.74 0 0 1-.635-.503 2.61 2.61 0 0 1-.415-.791c-.101-.309-.171-.658-.21-1.045v-.449c.039-.391.109-.741.21-1.05a2.61 2.61 0 0 1 .415-.791 1.67 1.67 0 0 1 .635-.503c.251-.117.542-.176.874-.176s.627.065.884.195a1.74 1.74 0 0 1 .644.547c.176.238.31.523.401.855s.136.695.136 1.098zm-.908.103v-.103c0-.263-.024-.511-.073-.742a1.94 1.94 0 0 0-.234-.615 1.17 1.17 0 0 0-.425-.42c-.176-.104-.392-.156-.65-.156-.228 0-.426.039-.595.117a1.29 1.29 0 0 0-.425.317c-.117.131-.213.28-.288.45a2.5 2.5 0 0 0-.161.517v1.177a2.47 2.47 0 0 0 .254.659c.12.208.279.379.478.513s.451.2.747.2c.244 0 .453-.049.625-.146a1.18 1.18 0 0 0 .425-.415 1.93 1.93 0 0 0 .244-.611 3.37 3.37 0 0 0 .078-.742zm7.647 1.68v-2.72a1.11 1.11 0 0 0-.127-.542.83.83 0 0 0-.371-.361c-.166-.085-.371-.127-.616-.127-.227 0-.428.039-.6.117a1.06 1.06 0 0 0-.401.307c-.094.127-.141.264-.141.411h-.904c0-.189.049-.376.147-.562a1.66 1.66 0 0 1 .42-.503c.185-.153.407-.273.664-.361a2.62 2.62 0 0 1 .869-.137c.384 0 .723.065 1.016.195a1.53 1.53 0 0 1 .693.591c.169.261.254.588.254.982v2.461c0 .175.015.363.044.561s.08.37.142.513v.078h-.943c-.045-.104-.081-.243-.107-.415a3.36 3.36 0 0 1-.039-.488zm.156-2.3l.01.635h-.913a3.4 3.4 0 0 0-.689.063 1.56 1.56 0 0 0-.508.181.86.86 0 0 0-.312.307c-.072.121-.108.262-.108.425s.038.318.113.454.187.246.337.327.34.118.561.118a1.49 1.49 0 0 0 .733-.176 1.52 1.52 0 0 0 .502-.43c.127-.169.196-.333.206-.493l.385.435c-.022.136-.084.288-.185.454s-.236.325-.406.478a2.18 2.18 0 0 1-.595.376c-.228.098-.485.147-.772.147-.358 0-.672-.07-.942-.21a1.61 1.61 0 0 1-.625-.562 1.48 1.48 0 0 1-.22-.796c0-.283.056-.532.166-.747a1.44 1.44 0 0 1 .479-.542c.208-.146.459-.257.752-.332a3.96 3.96 0 0 1 .981-.112h1.05zm3.071-1.065v6.299h-.908v-7.314h.83l.078 1.015zm3.56 1.582v.103a3.99 3.99 0 0 1-.137 1.069 2.64 2.64 0 0 1-.4.85 1.82 1.82 0 0 1-.64.561c-.254.134-.545.201-.874.201-.335 0-.632-.056-.889-.166s-.475-.272-.654-.484-.322-.465-.43-.761-.175-.63-.214-1.001v-.547a4.61 4.61 0 0 1 .219-1.05c.108-.309.249-.573.425-.791s.396-.389.649-.503a2.08 2.08 0 0 1 .879-.176c.332 0 .627.065.884.195a1.79 1.79 0 0 1 .65.547c.175.238.307.523.395.855s.137.695.137 1.098zm-.908.103v-.103a3.2 3.2 0 0 0-.083-.742c-.056-.234-.142-.439-.259-.615s-.261-.319-.44-.42a1.25 1.25 0 0 0-.639-.156c-.228 0-.427.039-.596.117a1.29 1.29 0 0 0-.425.317c-.117.131-.213.28-.288.45s-.125.338-.161.517v1.265c.065.228.156.443.273.644a1.43 1.43 0 0 0 .469.484c.195.12.441.18.737.18a1.24 1.24 0 0 0 .63-.151c.179-.104.326-.246.44-.425s.203-.384.259-.615.083-.483.083-.747zm3.042-2.7v5.283h-.909v-5.283h.909zm-.977-1.402c0-.146.044-.27.132-.371s.224-.151.4-.151.305.05.396.151.141.225.141.371c0 .14-.047.261-.141.362s-.223.146-.396.146-.309-.049-.4-.146-.132-.222-.132-.362z" class="C"/><path d="M563 211.5c24.853 0 45-10.633 45-23.75S587.853 164 563 164s-45 10.633-45 23.75 20.147 23.75 45 23.75z" class="B D"/><path d="M535.087 185.267v4.233h-.908v-5.283h.859l.049 1.05zm-.186 1.391l-.42-.014a3.64 3.64 0 0 1 .142-1.001 2.37 2.37 0 0 1 .405-.806 1.79 1.79 0 0 1 .669-.527c.267-.127.576-.191.928-.191.247 0 .475.036.684.108s.389.177.542.327.271.342.356.576.127.517.127.849v3.521h-.903v-3.477c0-.276-.048-.498-.142-.664s-.221-.286-.391-.361-.367-.117-.595-.117c-.267 0-.49.047-.669.141a1.14 1.14 0 0 0-.43.391 1.78 1.78 0 0 0-.234.571c-.046.212-.069.437-.069.674zm3.423-.498l-.605.186c.003-.29.05-.568.141-.835a2.27 2.27 0 0 1 .406-.713 1.91 1.91 0 0 1 .659-.493c.26-.124.558-.186.893-.186.284 0 .534.038.752.112s.407.191.557.347a1.45 1.45 0 0 1 .347.591 2.8 2.8 0 0 1 .117.859v3.472h-.908v-3.481c0-.297-.048-.526-.142-.689a.74.74 0 0 0-.391-.347c-.166-.068-.364-.102-.595-.102a1.29 1.29 0 0 0-.528.102 1.09 1.09 0 0 0-.385.284 1.23 1.23 0 0 0-.24.405c-.052.153-.078.316-.078.488zm5.615-1.943v5.283h-.908v-5.283h.908zm-.976-1.402c0-.146.044-.27.132-.371s.224-.151.4-.151.304.05.396.151.141.225.141.371c0 .14-.047.261-.141.362s-.223.146-.396.146-.309-.049-.4-.146-.132-.222-.132-.362zm4.541 6.04c.215 0 .413-.043.596-.131a1.23 1.23 0 0 0 .449-.362 1 1 0 0 0 .2-.532h.859a1.61 1.61 0 0 1-.317.874c-.192.267-.444.484-.757.65s-.656.244-1.03.244a2.41 2.41 0 0 1-1.04-.21 2.07 2.07 0 0 1-.733-.576c-.192-.245-.336-.525-.434-.84s-.142-.656-.142-1.011v-.205c0-.355.047-.69.142-1.006s.242-.601.434-.845a2.07 2.07 0 0 1 .733-.576 2.41 2.41 0 0 1 1.04-.21c.413 0 .775.085 1.084.254s.552.394.727.684a1.97 1.97 0 0 1 .293.976h-.859c-.016-.218-.078-.415-.186-.591a1.17 1.17 0 0 0-.429-.42c-.179-.107-.389-.161-.63-.161-.277 0-.51.056-.698.166s-.334.254-.445.44a2.07 2.07 0 0 0-.234.61c-.046.222-.068.448-.068.679v.205c0 .231.022.459.068.684a1.98 1.98 0 0 0 .229.61c.111.182.259.329.445.439s.423.161.703.161zm4.023-3.808v4.453h-.903v-5.283h.879l.024.83zm1.651-.859l-.005.839c-.075-.016-.147-.026-.215-.029l-.225-.01a1.45 1.45 0 0 0-.551.098c-.16.065-.295.156-.406.273a1.34 1.34 0 0 0-.263.42 2 2 0 0 0-.122.528l-.254.146a4.21 4.21 0 0 1 .092-.898c.066-.28.165-.528.298-.743a1.46 1.46 0 0 1 .508-.507c.208-.124.456-.186.742-.186a1.16 1.16 0 0 1 .225.025.64.64 0 0 1 .176.044zm.498 2.729v-.112c0-.381.055-.734.166-1.06s.27-.613.478-.854a2.14 2.14 0 0 1 .757-.567c.296-.136.628-.205.996-.205s.705.069 1.001.205.554.322.762.567.373.525.483.854.166.679.166 1.06v.112c0 .381-.055.734-.166 1.06s-.271.61-.483.854-.461.43-.757.566-.625.201-.996.201-.705-.067-1.001-.201a2.26 2.26 0 0 1-.762-.566c-.208-.244-.368-.529-.478-.854s-.166-.679-.166-1.06zm.903-.112v.112c0 .264.031.513.093.747s.154.436.278.615.285.321.474.425.408.151.659.151.464-.05.649-.151.345-.246.469-.425a1.94 1.94 0 0 0 .278-.615 2.74 2.74 0 0 0 .098-.747v-.112a2.68 2.68 0 0 0-.098-.738c-.061-.234-.156-.441-.283-.62s-.28-.325-.468-.429a1.31 1.31 0 0 0-.655-.157c-.247 0-.465.052-.654.157a1.4 1.4 0 0 0-.469.429 1.96 1.96 0 0 0-.278.62c-.062.232-.093.477-.093.738zm8.115 1.294c0-.131-.029-.251-.088-.362s-.17-.216-.346-.307-.433-.176-.781-.244a6.29 6.29 0 0 1-.796-.22 2.4 2.4 0 0 1-.601-.308c-.163-.12-.288-.262-.376-.425a1.18 1.18 0 0 1-.132-.571 1.33 1.33 0 0 1 .137-.591c.094-.185.226-.35.395-.493s.38-.255.621-.337a2.51 2.51 0 0 1 .805-.122c.423 0 .785.075 1.084.225s.529.35.689.6a1.5 1.5 0 0 1 .239.826h-.903c0-.147-.044-.289-.132-.425s-.21-.256-.376-.347-.363-.137-.601-.137c-.25 0-.454.039-.61.118-.153.074-.265.17-.337.288s-.103.24-.103.371a.69.69 0 0 0 .049.263.58.58 0 0 0 .186.21 1.5 1.5 0 0 0 .371.176 5.71 5.71 0 0 0 .61.166c.433.098.79.215 1.07.352s.488.304.625.503.205.439.205.722c0 .231-.049.443-.147.635s-.233.358-.415.498-.394.244-.644.322-.526.113-.835.113c-.466 0-.86-.083-1.182-.249s-.566-.381-.732-.645-.249-.542-.249-.835h.908c.013.248.084.444.215.591s.289.246.478.308.376.087.562.087c.247 0 .454-.032.62-.097s.298-.155.385-.269a.62.62 0 0 0 .132-.39zm4.283 1.499a2.59 2.59 0 0 1-1.001-.186c-.297-.127-.552-.304-.767-.532a2.36 2.36 0 0 1-.488-.811c-.114-.312-.171-.654-.171-1.025v-.205c0-.43.063-.812.19-1.148a2.57 2.57 0 0 1 .518-.859 2.21 2.21 0 0 1 .742-.532c.277-.121.563-.181.859-.181.378 0 .703.065.977.195a1.79 1.79 0 0 1 .679.547 2.34 2.34 0 0 1 .39.821c.085.312.127.654.127 1.025v.405h-3.945v-.737h3.042v-.068a2.24 2.24 0 0 0-.147-.684c-.081-.221-.211-.404-.39-.547s-.423-.215-.733-.215c-.205 0-.394.044-.566.132s-.321.212-.444.381-.22.376-.288.62-.103.526-.103.845v.205c0 .251.034.487.103.708s.174.41.307.576.301.296.493.391.417.141.664.141c.319 0 .59-.065.811-.195s.415-.304.581-.522l.547.434c-.114.173-.259.337-.435.493a2.04 2.04 0 0 1-.649.381c-.254.098-.555.147-.903.147zm4.013-4.551v4.453h-.903v-5.283h.879l.024.83zm1.651-.859l-.005.839c-.075-.016-.147-.026-.215-.029l-.225-.01a1.45 1.45 0 0 0-.551.098c-.16.065-.295.156-.406.273a1.34 1.34 0 0 0-.263.42 2 2 0 0 0-.122.528l-.254.146a4.21 4.21 0 0 1 .092-.898 2.46 2.46 0 0 1 .298-.743 1.46 1.46 0 0 1 .508-.507c.208-.124.456-.186.742-.186a1.16 1.16 0 0 1 .225.025.65.65 0 0 1 .176.044zm2.529 4.497l1.445-4.468h.923l-1.899 5.283h-.606l.137-.815zm-1.206-4.468l1.489 4.492.103.791h-.606l-1.914-5.283h.928zm5.425 0v5.283h-.909v-5.283h.909zm-.977-1.402c0-.146.044-.27.132-.371s.225-.151.4-.151.305.05.396.151.141.225.141.371c0 .14-.047.261-.141.362s-.223.146-.396.146-.309-.049-.4-.146-.132-.222-.132-.362zm4.541 6.04a1.35 1.35 0 0 0 .596-.131 1.23 1.23 0 0 0 .449-.362 1 1 0 0 0 .2-.532h.86a1.61 1.61 0 0 1-.318.874c-.192.267-.444.484-.757.65s-.656.244-1.03.244a2.41 2.41 0 0 1-1.04-.21 2.06 2.06 0 0 1-.732-.576 2.6 2.6 0 0 1-.435-.84 3.56 3.56 0 0 1-.142-1.011v-.205a3.51 3.51 0 0 1 .142-1.006c.098-.319.243-.601.435-.845a2.06 2.06 0 0 1 .732-.576 2.41 2.41 0 0 1 1.04-.21c.414 0 .775.085 1.084.254s.552.394.728.684.276.612.293.976h-.86c-.016-.218-.078-.415-.185-.591a1.17 1.17 0 0 0-.43-.42c-.179-.107-.389-.161-.63-.161-.277 0-.509.056-.698.166s-.334.254-.444.44-.186.386-.235.61-.068.448-.068.679v.205a3.48 3.48 0 0 0 .068.684c.046.224.122.428.23.61a1.26 1.26 0 0 0 .444.439c.189.108.423.161.703.161zm5.313.743a2.59 2.59 0 0 1-1.001-.186c-.297-.127-.552-.304-.767-.532a2.36 2.36 0 0 1-.488-.811c-.114-.312-.171-.654-.171-1.025v-.205c0-.43.063-.812.19-1.148a2.57 2.57 0 0 1 .518-.859 2.21 2.21 0 0 1 .742-.532c.277-.121.563-.181.859-.181.378 0 .704.065.977.195a1.79 1.79 0 0 1 .679.547 2.34 2.34 0 0 1 .39.821c.085.312.127.654.127 1.025v.405h-3.945v-.737h3.042v-.068a2.24 2.24 0 0 0-.147-.684c-.081-.221-.211-.404-.39-.547s-.423-.215-.733-.215a1.23 1.23 0 0 0-.566.132 1.21 1.21 0 0 0-.444.381c-.124.169-.22.376-.288.62s-.103.526-.103.845v.205c0 .251.034.487.103.708s.174.41.307.576.301.296.493.391.417.141.664.141c.319 0 .59-.065.811-.195s.415-.304.581-.522l.547.434c-.114.173-.259.337-.435.493a2.04 2.04 0 0 1-.649.381c-.254.098-.555.147-.903.147z" class="C"/><g stroke="#ff8000"><path d="M563 151v-17h143l-.26 29.76" class="E"/><path d="M563 163a6 6 0 1 0 0-12 6 6 0 1 0 0 12z" class="F"/><path d="M701.31 155.84l4.42 9.04 4.58-8.96M565 294.75V321h241V191l-55.76.12" class="E"/><path d="M565 294.75a6 6 0 1 0 0-12 6 6 0 1 0 0 12z" class="F"/><path d="M758.11 186.61l-8.99 4.52 9.01 4.48M610 271v36h96l-.45-20.38" class="E"/><path d="M610 271a6 6 0 1 0 0-12 6 6 0 1 0 0 12z" class="F"/><g class="E"><path d="M710.22 294.4l-4.7-8.9-4.3 9.09M61 174.13h84.76m-7.88 4.5l9-4.5-9-4.5M275 277.88l-.34-21.04"/><path d="M274.51 247.84l4.57 4.42-4.42 4.58-4.57-4.43 4.42-4.57z" class="F"/><path d="M310 174.13L352 215l35.26-.24m-7.85 4.56l8.97-4.56-9.03-4.44m44.42 54.11L533 299l-.3-22.24m4.61 7.82l-4.62-8.94-4.38 9.06m2.36-113.47L531 143l-54.76-.48m7.92-4.43l-9.04 4.42 8.96 4.58m48.59 94.39L457 213v-25.26m4.5 7.88l-4.5-9-4.5 9"/></g></g><defs><linearGradient id="A" x1="0" y1="0" x2="0" y2="209.45" gradientUnits="userSpaceOnUse"><stop stop-color="#fff" stop-opacity=".9"/><stop offset="1" stop-color="#fff" stop-opacity=".1"/></linearGradient></defs></svg>